<?xml version="1.0" encoding="utf-8"?>
<!-- Generator: Adobe Illustrator 15.1.0, SVG Export Plug-In . SVG Version: 6.00 Build 0)  -->
<!DOCTYPE svg PUBLIC "-//W3C//DTD SVG 1.1//EN" "http://www.w3.org/Graphics/SVG/1.1/DTD/svg11.dtd">
<svg version="1.1" id="Layer_1" xmlns="http://www.w3.org/2000/svg" xmlns:xlink="http://www.w3.org/1999/xlink" x="0px" y="0px"
	 width="37.167px" height="21.792px" viewBox="0 0 37.167 21.792" enable-background="new 0 0 37.167 21.792" xml:space="preserve">
<path d="M28,0.666V0.625h-8.167h-2.5H9.167v0.041C4.042,1.076,0,5.634,0,11.208c0,5.575,4.042,10.132,9.167,10.543v0.041h8.167h2.5
	H28v-0.041c5.125-0.411,9.167-4.968,9.167-10.543C37.167,5.634,33.125,1.076,28,0.666z M11.75,16.292
	c-2.808,0-5.083-2.276-5.083-5.083c0-2.808,2.275-5.083,5.083-5.083c2.808,0,5.083,2.275,5.083,5.083
	C16.833,14.015,14.558,16.292,11.75,16.292z M26.583,16.292c-2.808,0-5.083-2.276-5.083-5.083c0-2.808,2.275-5.083,5.083-5.083
	c2.808,0,5.083,2.275,5.083,5.083C31.667,14.015,29.391,16.292,26.583,16.292z"/>
<path d="M78.167-1.875v-7.167h-11.5h-11.5v7.167c-6.351,0-11.5,5.149-11.5,11.5s5.149,11.5,11.5,11.5s11.5-5.149,11.5-11.5
	c0,6.351,5.149,11.5,11.5,11.5s11.5-5.149,11.5-11.5S84.518-1.875,78.167-1.875z M55.167,16.624c-3.498,0-6.333-2.947-6.333-6.583
	c0-3.636,2.835-6.583,6.333-6.583c3.498,0,6.333,2.947,6.333,6.583C61.5,13.677,58.665,16.624,55.167,16.624z M78.167,16.624
	c-3.498,0-6.333-2.947-6.333-6.583c0-3.636,2.835-6.583,6.333-6.583c3.498,0,6.333,2.947,6.333,6.583
	C84.5,13.677,81.665,16.624,78.167,16.624z"/>
<path d="M133.083-2.958c-0.262,0-0.519,0.022-0.777,0.039c0.008-0.18,0.027-0.357,0.027-0.539c0-6.397-5.186-11.583-11.583-11.583
	c-6.397,0-11.583,5.186-11.583,11.583c0,0.013,0.002,0.025,0.002,0.038C103.122-3.033,98.333,1.98,98.333,8.125
	c0,6.397,5.186,11.583,11.583,11.583c6.397,0,11.583-5.186,11.583-11.583c0-0.013-0.002-0.025-0.002-0.037
	c0.01-0.001,0.02-0.001,0.029-0.001c-0.008,0.18-0.027,0.357-0.027,0.539c0,6.397,5.186,11.583,11.583,11.583
	c6.397,0,11.583-5.186,11.583-11.583C144.667,2.228,139.48-2.958,133.083-2.958z M109.917,15.042c-3.544,0-6.417-2.873-6.417-6.417
	s2.873-6.417,6.417-6.417s6.417,2.873,6.417,6.417S113.46,15.042,109.917,15.042z M120.75,3.459c-3.544,0-6.417-2.873-6.417-6.417
	s2.873-6.417,6.417-6.417s6.417,2.873,6.417,6.417S124.294,3.459,120.75,3.459z M133.083,15.542c-3.544,0-6.417-2.873-6.417-6.417
	s2.873-6.417,6.417-6.417s6.417,2.873,6.417,6.417S136.627,15.542,133.083,15.542z"/>
<path d="M183.667-10.19v-0.018H177.5c0,2.394-1.94,4.333-4.333,4.333c-0.114,0-0.222-0.025-0.333-0.034
	c-0.112,0.009-0.219,0.034-0.333,0.034c-2.394,0-4.333-1.94-4.333-4.333H162v0.018c-5.643,0.189-10.167,5.101-10.167,11.148
	c0,6.048,4.523,10.96,10.167,11.149v0.018h6.5c0-2.394,1.94-4.333,4.333-4.333s4.333,1.94,4.333,4.333h6.5v-0.018
	c5.643-0.189,10.167-5.101,10.167-11.149C193.833-5.089,189.31-10.001,183.667-10.19z M162.333,6.625
	c-2.808,0-5.083-2.276-5.083-5.083c0-2.808,2.276-5.083,5.083-5.083c2.807,0,5.083,2.276,5.083,5.083
	C167.417,4.349,165.141,6.625,162.333,6.625z M183.333,6.625c-2.807,0-5.083-2.276-5.083-5.083c0-2.808,2.276-5.083,5.083-5.083
	c2.808,0,5.083,2.276,5.083,5.083C188.417,4.349,186.141,6.625,183.333,6.625z"/>
<path d="M247.223-16.792H204.39c-2.209,0-4,1.791-4,4v25.583c0,2.209,1.791,4,4,4h42.833c2.209,0,4-1.791,4-4v-25.583
	C251.223-15,249.432-16.792,247.223-16.792z M215.89,7.625h-6.333V-7.042h6.333V7.625z M242.056,7.625h-6.333V-7.042h6.333V7.625z"
	/>
<path d="M309.223-15.833h-17.558v10.25h-7.833v-10.25h-17.443c-2.209,0-4,1.791-4,4V13.75c0,2.209,1.791,4,4,4h42.834
	c2.209,0,4-1.791,4-4v-25.583C313.223-14.042,311.432-15.833,309.223-15.833z M277.889,8.583h-6.334V-6.083h6.334V8.583z
	 M304.055,8.583h-6.332V-6.083h6.332V8.583z"/>
<path d="M365.857-22.959h-29.046L321.5-7.649V13.75c0,2.209,1.791,4,4,4h50.167c2.209,0,4-1.791,4-4V-9.148L365.857-22.959z
	 M338,9.583h-6.666V-5.25H338V9.583z M355-0.25h-6.666v-14.833H355V-0.25z M371.333,9.583h-6.666V-5.25h6.666V9.583z"/>
<path d="M430.024-27.417h-29.046l-15.311,15.31V9.292c0,2.209,1.791,4,4,4h20.499V6.458c0-2.209,1.791-4,4-4h1.167
	c2.209,0,4,1.791,4,4v6.833h20.501c2.209,0,4-1.791,4-4v-22.898L430.024-27.417z M402.167,5.125h-6.666V-9.708h6.666V5.125z
	 M419.167-4.708h-6.666v-14.833h6.666V-4.708z M435.5,5.125h-6.666V-9.708h6.666V5.125z"/>
<path d="M503.732-20.208h-8.065v-7.208h-28.189l-0.311,0.311v6.898h-6.898l-8.102,8.102V9.292c0,2.209,1.791,4,4,4h20.499V6.458
	c0-2.209,1.791-4,4-4h1.167c2.209,0,4,1.791,4,4v6.833h20.501c2.209,0,4-1.791,4-4v-22.898L503.732-20.208z M468.667,5.125H462
	V-9.708h6.666V5.125z M485.667-4.708H479v-14.833h6.666V-4.708z M502,5.125h-6.666V-9.708H502V5.125z"/>
<path d="M563.065-24.458h-28.251L520.167-9.81v21.102c0,2.209,1.791,4,4,4h50c2.209,0,4-1.791,4-4V-9.357L563.065-24.458z
	 M536.167,8.792h-6.25v-15.75h6.25V8.792z M569.417,8.792h-6.25v-15.75h6.25V8.792z"/>
<path d="M648.167-29.958h-56.25c-2.209,0-4,1.791-4,4v33.5c0,2.209,1.791,4,4,4h56.25c2.209,0,4-1.791,4-4v-33.5
	C652.167-28.167,650.375-29.958,648.167-29.958z M611.917-20.208h15.75v6.75h-15.75V-20.208z M613.167,2.292h-15.75v-6.75h15.75
	V2.292z M642.417,2.292h-15.75v-6.75h15.75V2.292z"/>
<path d="M705.461-33.208h-31.805l-16.49,16.491V7.039c0,2.487,2.017,4.503,4.503,4.503h56.289c2.487,0,4.504-2.016,4.504-4.503
	v-23.246L705.461-33.208z M681.815-22.458h15.75v6.75h-15.75V-22.458z M683.065,0.042h-15.75v-6.75h15.75V0.042z M712.315,0.042
	h-15.75v-6.75h15.75V0.042z"/>
<path d="M787.417-28.208h-56.25c-2.209,0-4,1.791-4,4v33.5c0,2.209,1.791,4,4,4h56.25c2.209,0,4-1.791,4-4v-33.5
	C791.417-26.417,789.625-28.208,787.417-28.208z M752.167,3.542h-15.75v-7h15.75V3.542z M782.667,3.542h-15.75v-7h15.75V3.542z"/>
</svg>
