<?xml version="1.0" encoding="utf-8"?>
<!-- Generator: Adobe Illustrator 15.1.0, SVG Export Plug-In . SVG Version: 6.00 Build 0)  -->
<!DOCTYPE svg PUBLIC "-//W3C//DTD SVG 1.1//EN" "http://www.w3.org/Graphics/SVG/1.1/DTD/svg11.dtd">
<svg version="1.1" id="Layer_1" xmlns="http://www.w3.org/2000/svg" xmlns:xlink="http://www.w3.org/1999/xlink" x="0px" y="0px"
	 width="50.834px" height="33.583px" viewBox="0 0 50.834 33.583" enable-background="new 0 0 50.834 33.583" xml:space="preserve">
<path d="M-234.389,16.499v-0.041h-8.167h-2.5h-8.167v0.041c-5.125,0.411-9.167,4.968-9.167,10.542
	c0,5.575,4.042,10.132,9.167,10.543v0.041h8.167h2.5h8.167v-0.041c5.125-0.411,9.167-4.968,9.167-10.543
	C-225.223,21.467-229.264,16.91-234.389,16.499z M-250.639,32.125c-2.808,0-5.083-2.276-5.083-5.083
	c0-2.808,2.275-5.083,5.083-5.083c2.808,0,5.083,2.275,5.083,5.083C-245.556,29.849-247.831,32.125-250.639,32.125z
	 M-235.806,32.125c-2.808,0-5.083-2.276-5.083-5.083c0-2.808,2.275-5.083,5.083-5.083c2.808,0,5.083,2.275,5.083,5.083
	C-230.723,29.849-232.998,32.125-235.806,32.125z"/>
<path d="M-184.222,13.958V6.791h-11.5h-11.5v7.167c-6.351,0-11.5,5.149-11.5,11.5s5.149,11.5,11.5,11.5s11.5-5.149,11.5-11.5
	c0,6.351,5.149,11.5,11.5,11.5s11.5-5.149,11.5-11.5S-177.871,13.958-184.222,13.958z M-207.222,32.458
	c-3.498,0-6.333-2.947-6.333-6.583c0-3.636,2.835-6.583,6.333-6.583c3.498,0,6.333,2.947,6.333,6.583
	C-200.889,29.51-203.724,32.458-207.222,32.458z M-184.222,32.458c-3.498,0-6.333-2.947-6.333-6.583
	c0-3.636,2.835-6.583,6.333-6.583c3.498,0,6.333,2.947,6.333,6.583C-177.889,29.51-180.725,32.458-184.222,32.458z"/>
<path d="M-129.306,12.875c-0.262,0-0.519,0.022-0.777,0.039c0.008-0.18,0.027-0.357,0.027-0.539c0-6.397-5.186-11.583-11.583-11.583
	c-6.397,0-11.583,5.186-11.583,11.583c0,0.013,0.002,0.025,0.002,0.038c-6.047,0.388-10.835,5.401-10.835,11.545
	c0,6.397,5.186,11.583,11.583,11.583c6.397,0,11.583-5.186,11.583-11.583c0-0.013-0.002-0.025-0.002-0.037
	c0.01-0.001,0.02-0.001,0.029-0.001c-0.008,0.18-0.027,0.357-0.027,0.539c0,6.397,5.186,11.583,11.583,11.583
	c6.397,0,11.583-5.186,11.583-11.583C-117.723,18.062-122.909,12.875-129.306,12.875z M-152.473,30.875
	c-3.544,0-6.417-2.873-6.417-6.417s2.873-6.417,6.417-6.417s6.417,2.873,6.417,6.417S-148.929,30.875-152.473,30.875z
	 M-141.639,19.292c-3.544,0-6.417-2.873-6.417-6.417s2.873-6.417,6.417-6.417s6.417,2.873,6.417,6.417
	S-138.095,19.292-141.639,19.292z M-129.306,31.375c-3.544,0-6.417-2.873-6.417-6.417s2.873-6.417,6.417-6.417
	s6.417,2.873,6.417,6.417S-125.762,31.375-129.306,31.375z"/>
<path d="M-78.722,5.643V5.625h-6.167c0,2.394-1.94,4.333-4.333,4.333c-0.114,0-0.222-0.025-0.333-0.034
	c-0.112,0.009-0.219,0.034-0.333,0.034c-2.394,0-4.333-1.94-4.333-4.333h-6.167v0.018c-5.643,0.189-10.167,5.101-10.167,11.148
	c0,6.048,4.523,10.96,10.167,11.149v0.018h6.5c0-2.394,1.94-4.333,4.333-4.333s4.333,1.94,4.333,4.333h6.5V27.94
	c5.643-0.189,10.167-5.101,10.167-11.149C-68.556,10.744-73.079,5.832-78.722,5.643z M-100.056,22.458
	c-2.808,0-5.083-2.276-5.083-5.083c0-2.808,2.276-5.083,5.083-5.083c2.807,0,5.083,2.276,5.083,5.083
	C-94.973,20.183-97.249,22.458-100.056,22.458z M-79.056,22.458c-2.807,0-5.083-2.276-5.083-5.083c0-2.808,2.276-5.083,5.083-5.083
	c2.808,0,5.083,2.276,5.083,5.083C-73.972,20.183-76.248,22.458-79.056,22.458z"/>
<path d="M-15.166-0.958H-58c-2.209,0-4,1.791-4,4v25.583c0,2.209,1.791,4,4,4h42.833c2.209,0,4-1.791,4-4V3.042
	C-11.166,0.833-12.957-0.958-15.166-0.958z M-46.5,23.458h-6.333V8.792h6.333V23.458z M-20.333,23.458h-6.333V8.792h6.333V23.458z"
	/>
<path d="M46.834,0H29.276v10.25h-7.833V0H4C1.791,0,0,1.791,0,4v25.583c0,2.209,1.791,4,4,4h42.834c2.209,0,4-1.791,4-4V4
	C50.834,1.791,49.043,0,46.834,0z M15.5,24.417H9.166V9.75H15.5V24.417z M41.666,24.417h-6.332V9.75h6.332V24.417z"/>
<path d="M103.468-7.125H74.422L59.111,8.185v21.398c0,2.209,1.791,4,4,4h50.167c2.209,0,4-1.791,4-4V6.685L103.468-7.125z
	 M75.611,25.417h-6.666V10.583h6.666V25.417z M92.611,15.583h-6.666V0.75h6.666V15.583z M108.944,25.417h-6.666V10.583h6.666V25.417
	z"/>
<path d="M167.635-11.583h-29.046l-15.311,15.31v21.398c0,2.209,1.791,4,4,4h20.499v-6.833c0-2.209,1.791-4,4-4h1.167
	c2.209,0,4,1.791,4,4v6.833h20.501c2.209,0,4-1.791,4-4V2.227L167.635-11.583z M139.778,20.958h-6.666V6.125h6.666V20.958z
	 M156.778,11.125h-6.666V-3.708h6.666V11.125z M173.111,20.958h-6.666V6.125h6.666V20.958z"/>
<path d="M241.343-4.375h-8.065v-7.208h-28.189l-0.311,0.311v6.898h-6.898l-8.102,8.102v21.398c0,2.209,1.791,4,4,4h20.499v-6.833
	c0-2.209,1.791-4,4-4h1.167c2.209,0,4,1.791,4,4v6.833h20.501c2.209,0,4-1.791,4-4V2.227L241.343-4.375z M206.277,20.958h-6.666
	V6.125h6.666V20.958z M223.277,11.125h-6.666V-3.708h6.666V11.125z M239.61,20.958h-6.666V6.125h6.666V20.958z"/>
<path d="M300.676-8.625h-28.251L257.777,6.023v21.102c0,2.209,1.791,4,4,4h50c2.209,0,4-1.791,4-4V6.477L300.676-8.625z
	 M273.777,24.625h-6.25V8.875h6.25V24.625z M307.027,24.625h-6.25V8.875h6.25V24.625z"/>
<path d="M385.777-14.125h-56.25c-2.209,0-4,1.791-4,4v33.5c0,2.209,1.791,4,4,4h56.25c2.209,0,4-1.791,4-4v-33.5
	C389.777-12.334,387.986-14.125,385.777-14.125z M349.527-4.375h15.75v6.75h-15.75V-4.375z M350.777,18.125h-15.75v-6.75h15.75
	V18.125z M380.027,18.125h-15.75v-6.75h15.75V18.125z"/>
<path d="M443.072-17.375h-31.805l-16.49,16.491v23.756c0,2.487,2.017,4.503,4.503,4.503h56.289c2.487,0,4.504-2.016,4.504-4.503
	V-0.374L443.072-17.375z M419.426-6.625h15.75v6.75h-15.75V-6.625z M420.676,15.875h-15.75v-6.75h15.75V15.875z M449.926,15.875
	h-15.75v-6.75h15.75V15.875z"/>
<path d="M525.027-12.375h-56.25c-2.209,0-4,1.791-4,4v33.5c0,2.209,1.791,4,4,4h56.25c2.209,0,4-1.791,4-4v-33.5
	C529.027-10.584,527.236-12.375,525.027-12.375z M489.777,19.375h-15.75v-7h15.75V19.375z M520.277,19.375h-15.75v-7h15.75V19.375z"
	/>
</svg>
