<?xml version="1.0" encoding="utf-8"?>
<!-- Generator: Adobe Illustrator 15.1.0, SVG Export Plug-In . SVG Version: 6.00 Build 0)  -->
<!DOCTYPE svg PUBLIC "-//W3C//DTD SVG 1.1//EN" "http://www.w3.org/Graphics/SVG/1.1/DTD/svg11.dtd">
<svg version="1.1" id="Layer_1" xmlns="http://www.w3.org/2000/svg" xmlns:xlink="http://www.w3.org/1999/xlink" x="0px" y="0px"
	 width="58.167px" height="40.708px" viewBox="0 0 58.167 40.708" enable-background="new 0 0 58.167 40.708" xml:space="preserve">
<path d="M-293.5,23.625v-0.041h-8.167h-2.5h-8.167v0.041c-5.125,0.411-9.167,4.968-9.167,10.542c0,5.575,4.042,10.132,9.167,10.543
	v0.041h8.167h2.5h8.167V44.71c5.125-0.411,9.167-4.968,9.167-10.543C-284.334,28.593-288.375,24.035-293.5,23.625z M-309.75,39.25
	c-2.808,0-5.083-2.276-5.083-5.083c0-2.808,2.275-5.083,5.083-5.083c2.808,0,5.083,2.275,5.083,5.083
	C-304.667,36.974-306.942,39.25-309.75,39.25z M-294.917,39.25c-2.808,0-5.083-2.276-5.083-5.083c0-2.808,2.275-5.083,5.083-5.083
	c2.808,0,5.083,2.275,5.083,5.083C-289.834,36.974-292.109,39.25-294.917,39.25z"/>
<path d="M-243.333,21.083v-7.167h-11.5h-11.5v7.167c-6.351,0-11.5,5.149-11.5,11.5s5.149,11.5,11.5,11.5s11.5-5.149,11.5-11.5
	c0,6.351,5.149,11.5,11.5,11.5s11.5-5.149,11.5-11.5S-236.982,21.083-243.333,21.083z M-266.333,39.583
	c-3.498,0-6.333-2.947-6.333-6.583c0-3.636,2.835-6.583,6.333-6.583c3.498,0,6.333,2.947,6.333,6.583
	C-260,36.636-262.835,39.583-266.333,39.583z M-243.333,39.583c-3.498,0-6.333-2.947-6.333-6.583c0-3.636,2.835-6.583,6.333-6.583
	c3.498,0,6.333,2.947,6.333,6.583C-237,36.636-239.836,39.583-243.333,39.583z"/>
<path d="M-188.417,20.001c-0.262,0-0.519,0.022-0.777,0.039c0.008-0.18,0.027-0.357,0.027-0.539c0-6.397-5.186-11.583-11.583-11.583
	c-6.397,0-11.583,5.186-11.583,11.583c0,0.013,0.002,0.025,0.002,0.038c-6.047,0.388-10.835,5.401-10.835,11.545
	c0,6.397,5.186,11.583,11.583,11.583c6.397,0,11.583-5.186,11.583-11.583c0-0.013-0.002-0.025-0.002-0.037
	c0.01-0.001,0.02-0.001,0.029-0.001c-0.008,0.18-0.027,0.357-0.027,0.539c0,6.397,5.186,11.583,11.583,11.583
	c6.397,0,11.583-5.186,11.583-11.583C-176.834,25.187-182.02,20.001-188.417,20.001z M-211.584,38.001
	c-3.544,0-6.417-2.873-6.417-6.417s2.873-6.417,6.417-6.417s6.417,2.873,6.417,6.417S-208.04,38.001-211.584,38.001z
	 M-200.75,26.418c-3.544,0-6.417-2.873-6.417-6.417s2.873-6.417,6.417-6.417s6.417,2.873,6.417,6.417S-197.207,26.418-200.75,26.418
	z M-188.417,38.501c-3.544,0-6.417-2.873-6.417-6.417s2.873-6.417,6.417-6.417s6.417,2.873,6.417,6.417
	S-184.874,38.501-188.417,38.501z"/>
<path d="M-137.833,12.769V12.75H-144c0,2.394-1.94,4.333-4.333,4.333c-0.114,0-0.222-0.025-0.333-0.034
	c-0.112,0.009-0.219,0.034-0.333,0.034c-2.394,0-4.333-1.94-4.333-4.333h-6.167v0.018c-5.643,0.189-10.167,5.101-10.167,11.148
	c0,6.048,4.523,10.96,10.167,11.149v0.018h6.5c0-2.394,1.94-4.333,4.333-4.333s4.333,1.94,4.333,4.333h6.5v-0.018
	c5.643-0.189,10.167-5.101,10.167-11.149C-127.667,17.87-132.19,12.958-137.833,12.769z M-159.167,29.584
	c-2.808,0-5.083-2.276-5.083-5.083c0-2.808,2.276-5.083,5.083-5.083c2.807,0,5.083,2.276,5.083,5.083
	C-154.084,27.308-156.36,29.584-159.167,29.584z M-138.167,29.584c-2.807,0-5.083-2.276-5.083-5.083
	c0-2.808,2.276-5.083,5.083-5.083c2.808,0,5.083,2.276,5.083,5.083C-133.083,27.308-135.359,29.584-138.167,29.584z"/>
<path d="M-74.277,6.167h-42.833c-2.209,0-4,1.791-4,4V35.75c0,2.209,1.791,4,4,4h42.833c2.209,0,4-1.791,4-4V10.167
	C-70.277,7.958-72.068,6.167-74.277,6.167z M-105.611,30.584h-6.333V15.917h6.333V30.584z M-79.444,30.584h-6.333V15.917h6.333
	V30.584z"/>
<path d="M-12.277,7.125h-17.558v10.25h-7.833V7.125h-17.443c-2.209,0-4,1.791-4,4v25.583c0,2.209,1.791,4,4,4h42.834
	c2.209,0,4-1.791,4-4V11.125C-8.277,8.917-10.068,7.125-12.277,7.125z M-43.611,31.542h-6.334V16.875h6.334V31.542z M-17.445,31.542
	h-6.332V16.875h6.332V31.542z"/>
<path d="M44.356,0H15.311L0,15.31v21.398c0,2.209,1.791,4,4,4h50.167c2.209,0,4-1.791,4-4V13.811L44.356,0z M16.5,32.542H9.834
	V17.708H16.5V32.542z M33.5,22.708h-6.666V7.875H33.5V22.708z M49.833,32.542h-6.666V17.708h6.666V32.542z"/>
<path d="M108.523-4.458H79.478l-15.311,15.31V32.25c0,2.209,1.791,4,4,4h20.499v-6.833c0-2.209,1.791-4,4-4h1.167
	c2.209,0,4,1.791,4,4v6.833h20.501c2.209,0,4-1.791,4-4V9.353L108.523-4.458z M80.667,28.084h-6.666V13.25h6.666V28.084z
	 M97.667,18.25h-6.666V3.417h6.666V18.25z M114,28.084h-6.666V13.25H114V28.084z"/>
<path d="M182.231,2.75h-8.065v-7.208h-28.189l-0.311,0.311V2.75h-6.898l-8.102,8.102V32.25c0,2.209,1.791,4,4,4h20.499v-6.833
	c0-2.209,1.791-4,4-4h1.167c2.209,0,4,1.791,4,4v6.833h20.501c2.209,0,4-1.791,4-4V9.353L182.231,2.75z M147.166,28.084H140.5V13.25
	h6.666V28.084z M164.166,18.25H157.5V3.417h6.666V18.25z M180.499,28.084h-6.666V13.25h6.666V28.084z"/>
<path d="M241.564-1.5h-28.251l-14.647,14.648V34.25c0,2.209,1.791,4,4,4h50c2.209,0,4-1.791,4-4V13.602L241.564-1.5z M214.666,31.75
	h-6.25V16h6.25V31.75z M247.916,31.75h-6.25V16h6.25V31.75z"/>
<path d="M326.666-7h-56.25c-2.209,0-4,1.791-4,4v33.5c0,2.209,1.791,4,4,4h56.25c2.209,0,4-1.791,4-4V-3
	C330.666-5.208,328.875-7,326.666-7z M290.416,2.75h15.75V9.5h-15.75V2.75z M291.666,25.25h-15.75V18.5h15.75V25.25z M320.916,25.25
	h-15.75V18.5h15.75V25.25z"/>
<path d="M383.961-10.25h-31.805l-16.49,16.491v23.756c0,2.487,2.017,4.503,4.503,4.503h56.289c2.487,0,4.504-2.016,4.504-4.503
	V6.751L383.961-10.25z M360.314,0.5h15.75v6.75h-15.75V0.5z M361.564,23h-15.75v-6.75h15.75V23z M390.814,23h-15.75v-6.75h15.75V23z
	"/>
<path d="M465.916-5.25h-56.25c-2.209,0-4,1.791-4,4v33.5c0,2.209,1.791,4,4,4h56.25c2.209,0,4-1.791,4-4v-33.5
	C469.916-3.458,468.125-5.25,465.916-5.25z M430.666,26.5h-15.75v-7h15.75V26.5z M461.166,26.5h-15.75v-7h15.75V26.5z"/>
</svg>
