<?xml version="1.0" encoding="utf-8"?>
<!-- Generator: Adobe Illustrator 15.1.0, SVG Export Plug-In . SVG Version: 6.00 Build 0)  -->
<!DOCTYPE svg PUBLIC "-//W3C//DTD SVG 1.1//EN" "http://www.w3.org/Graphics/SVG/1.1/DTD/svg11.dtd">
<svg version="1.1" id="Layer_1" xmlns="http://www.w3.org/2000/svg" xmlns:xlink="http://www.w3.org/1999/xlink" x="0px" y="0px"
	 width="58.167px" height="40.708px" viewBox="0 0 58.167 40.708" enable-background="new 0 0 58.167 40.708" xml:space="preserve">
<path d="M-357.667,28.083v-0.041h-8.167h-2.5h-8.167v0.041c-5.125,0.411-9.167,4.968-9.167,10.542
	c0,5.575,4.042,10.132,9.167,10.543v0.041h8.167h2.5h8.167v-0.041c5.125-0.411,9.167-4.968,9.167-10.543
	C-348.501,33.051-352.542,28.493-357.667,28.083z M-373.917,43.708c-2.808,0-5.083-2.276-5.083-5.083
	c0-2.808,2.275-5.083,5.083-5.083c2.808,0,5.083,2.275,5.083,5.083C-368.834,41.432-371.109,43.708-373.917,43.708z
	 M-359.084,43.708c-2.808,0-5.083-2.276-5.083-5.083c0-2.808,2.275-5.083,5.083-5.083c2.808,0,5.083,2.275,5.083,5.083
	C-354.001,41.432-356.276,43.708-359.084,43.708z"/>
<path d="M-307.5,25.542v-7.167H-319h-11.5v7.167c-6.351,0-11.5,5.149-11.5,11.5s5.149,11.5,11.5,11.5s11.5-5.149,11.5-11.5
	c0,6.351,5.149,11.5,11.5,11.5s11.5-5.149,11.5-11.5S-301.149,25.542-307.5,25.542z M-330.5,44.041
	c-3.498,0-6.333-2.947-6.333-6.583c0-3.636,2.835-6.583,6.333-6.583c3.498,0,6.333,2.947,6.333,6.583
	C-324.167,41.094-327.002,44.041-330.5,44.041z M-307.5,44.041c-3.498,0-6.333-2.947-6.333-6.583c0-3.636,2.835-6.583,6.333-6.583
	c3.498,0,6.333,2.947,6.333,6.583C-301.167,41.094-304.003,44.041-307.5,44.041z"/>
<path d="M-252.584,24.459c-0.262,0-0.519,0.022-0.777,0.039c0.008-0.18,0.027-0.357,0.027-0.539c0-6.397-5.186-11.583-11.583-11.583
	c-6.397,0-11.583,5.186-11.583,11.583c0,0.013,0.002,0.025,0.002,0.038c-6.047,0.388-10.835,5.401-10.835,11.545
	c0,6.397,5.186,11.583,11.583,11.583c6.397,0,11.583-5.186,11.583-11.583c0-0.013-0.002-0.025-0.002-0.037
	c0.01-0.001,0.02-0.001,0.029-0.001c-0.008,0.18-0.027,0.357-0.027,0.539c0,6.397,5.186,11.583,11.583,11.583
	c6.397,0,11.583-5.186,11.583-11.583C-241.001,29.645-246.187,24.459-252.584,24.459z M-275.751,42.459
	c-3.544,0-6.417-2.873-6.417-6.417s2.873-6.417,6.417-6.417s6.417,2.873,6.417,6.417S-272.207,42.459-275.751,42.459z
	 M-264.917,30.876c-3.544,0-6.417-2.873-6.417-6.417s2.873-6.417,6.417-6.417s6.417,2.873,6.417,6.417
	S-261.374,30.876-264.917,30.876z M-252.584,42.959c-3.544,0-6.417-2.873-6.417-6.417s2.873-6.417,6.417-6.417
	s6.417,2.873,6.417,6.417S-249.041,42.959-252.584,42.959z"/>
<path d="M-202,17.227v-0.018h-6.167c0,2.394-1.94,4.333-4.333,4.333c-0.114,0-0.222-0.025-0.333-0.034
	c-0.112,0.009-0.219,0.034-0.333,0.034c-2.394,0-4.333-1.94-4.333-4.333h-6.167v0.018c-5.643,0.189-10.167,5.101-10.167,11.148
	c0,6.048,4.523,10.96,10.167,11.149v0.018h6.5c0-2.394,1.94-4.333,4.333-4.333s4.333,1.94,4.333,4.333h6.5v-0.018
	c5.643-0.189,10.167-5.101,10.167-11.149C-191.834,22.328-196.357,17.416-202,17.227z M-223.334,34.042
	c-2.808,0-5.083-2.276-5.083-5.083c0-2.808,2.276-5.083,5.083-5.083c2.807,0,5.083,2.276,5.083,5.083
	C-218.251,31.766-220.527,34.042-223.334,34.042z M-202.334,34.042c-2.807,0-5.083-2.276-5.083-5.083
	c0-2.808,2.276-5.083,5.083-5.083c2.808,0,5.083,2.276,5.083,5.083C-197.25,31.766-199.526,34.042-202.334,34.042z"/>
<path d="M-138.444,10.625h-42.833c-2.209,0-4,1.791-4,4v25.583c0,2.209,1.791,4,4,4h42.833c2.209,0,4-1.791,4-4V14.625
	C-134.444,12.417-136.235,10.625-138.444,10.625z M-169.778,35.042h-6.333V20.375h6.333V35.042z M-143.611,35.042h-6.333V20.375
	h6.333V35.042z"/>
<path d="M-76.444,11.583h-17.558v10.25h-7.833v-10.25h-17.443c-2.209,0-4,1.791-4,4v25.583c0,2.209,1.791,4,4,4h42.834
	c2.209,0,4-1.791,4-4V15.583C-72.444,13.375-74.235,11.583-76.444,11.583z M-107.778,36h-6.334V21.333h6.334V36z M-81.612,36h-6.332
	V21.333h6.332V36z"/>
<path d="M-19.811,4.458h-29.046l-15.311,15.31v21.398c0,2.209,1.791,4,4,4H-10c2.209,0,4-1.791,4-4V18.269L-19.811,4.458z
	 M-47.667,37h-6.666V22.167h6.666V37z M-30.667,27.167h-6.666V12.333h6.666V27.167z M-14.334,37H-21V22.167h6.666V37z"/>
<path d="M44.356,0H15.311L0,15.31v21.398c0,2.209,1.791,4,4,4h20.499v-6.833c0-2.209,1.791-4,4-4h1.167c2.209,0,4,1.791,4,4v6.833
	h20.501c2.209,0,4-1.791,4-4V13.811L44.356,0z M16.5,32.542H9.834V17.708H16.5V32.542z M33.5,22.708h-6.666V7.875H33.5V22.708z
	 M49.833,32.542h-6.666V17.708h6.666V32.542z"/>
<path d="M118.064,7.208h-8.065V0H81.81l-0.311,0.311v6.898h-6.898l-8.102,8.102v21.398c0,2.209,1.791,4,4,4h20.499v-6.833
	c0-2.209,1.791-4,4-4h1.167c2.209,0,4,1.791,4,4v6.833h20.501c2.209,0,4-1.791,4-4V13.811L118.064,7.208z M82.999,32.542h-6.666
	V17.708h6.666V32.542z M99.999,22.708h-6.666V7.875h6.666V22.708z M116.332,32.542h-6.666V17.708h6.666V32.542z"/>
<path d="M177.397,2.958h-28.251l-14.647,14.648v21.102c0,2.209,1.791,4,4,4h50c2.209,0,4-1.791,4-4V18.06L177.397,2.958z
	 M150.499,36.208h-6.25v-15.75h6.25V36.208z M183.749,36.208h-6.25v-15.75h6.25V36.208z"/>
<path d="M262.499-2.542h-56.25c-2.209,0-4,1.791-4,4v33.5c0,2.209,1.791,4,4,4h56.25c2.209,0,4-1.791,4-4v-33.5
	C266.499-0.75,264.708-2.542,262.499-2.542z M226.249,7.208h15.75v6.75h-15.75V7.208z M227.499,29.708h-15.75v-6.75h15.75V29.708z
	 M256.749,29.708h-15.75v-6.75h15.75V29.708z"/>
<path d="M319.794-5.792h-31.805L271.499,10.7v23.756c0,2.487,2.017,4.503,4.503,4.503h56.289c2.487,0,4.504-2.016,4.504-4.503
	V11.209L319.794-5.792z M296.147,4.958h15.75v6.75h-15.75V4.958z M297.397,27.458h-15.75v-6.75h15.75V27.458z M326.647,27.458
	h-15.75v-6.75h15.75V27.458z"/>
<path d="M401.749-0.792h-56.25c-2.209,0-4,1.791-4,4v33.5c0,2.209,1.791,4,4,4h56.25c2.209,0,4-1.791,4-4v-33.5
	C405.749,1,403.958-0.792,401.749-0.792z M366.499,30.958h-15.75v-7h15.75V30.958z M396.999,30.958h-15.75v-7h15.75V30.958z"/>
</svg>
