<?xml version="1.0" encoding="utf-8"?>
<!-- Generator: Adobe Illustrator 15.1.0, SVG Export Plug-In . SVG Version: 6.00 Build 0)  -->
<!DOCTYPE svg PUBLIC "-//W3C//DTD SVG 1.1//EN" "http://www.w3.org/Graphics/SVG/1.1/DTD/svg11.dtd">
<svg version="1.1" id="Layer_1" xmlns="http://www.w3.org/2000/svg" xmlns:xlink="http://www.w3.org/1999/xlink" x="0px" y="0px"
	 width="58.167px" height="40.708px" viewBox="0 0 58.167 40.708" enable-background="new 0 0 58.167 40.708" xml:space="preserve">
<path d="M-424.167,28.083v-0.041h-8.167h-2.5H-443v0.041c-5.125,0.411-9.167,4.968-9.167,10.542c0,5.575,4.042,10.132,9.167,10.543
	v0.041h8.167h2.5h8.167v-0.041C-419.042,48.757-415,44.2-415,38.625C-415,33.051-419.042,28.493-424.167,28.083z M-440.416,43.708
	c-2.808,0-5.083-2.276-5.083-5.083c0-2.808,2.275-5.083,5.083-5.083c2.808,0,5.083,2.275,5.083,5.083
	C-435.333,41.432-437.608,43.708-440.416,43.708z M-425.583,43.708c-2.808,0-5.083-2.276-5.083-5.083
	c0-2.808,2.275-5.083,5.083-5.083c2.808,0,5.083,2.275,5.083,5.083C-420.5,41.432-422.775,43.708-425.583,43.708z"/>
<path d="M-374,25.542v-7.167h-11.5H-397v7.167c-6.351,0-11.5,5.149-11.5,11.5s5.149,11.5,11.5,11.5s11.5-5.149,11.5-11.5
	c0,6.351,5.149,11.5,11.5,11.5s11.5-5.149,11.5-11.5S-367.648,25.542-374,25.542z M-397,44.041c-3.498,0-6.333-2.947-6.333-6.583
	c0-3.636,2.835-6.583,6.333-6.583c3.498,0,6.333,2.947,6.333,6.583C-390.666,41.094-393.501,44.041-397,44.041z M-374,44.041
	c-3.498,0-6.333-2.947-6.333-6.583c0-3.636,2.835-6.583,6.333-6.583c3.498,0,6.333,2.947,6.333,6.583
	C-367.667,41.094-370.502,44.041-374,44.041z"/>
<path d="M-319.083,24.459c-0.262,0-0.519,0.022-0.777,0.039c0.008-0.18,0.027-0.357,0.027-0.539c0-6.397-5.186-11.583-11.583-11.583
	c-6.397,0-11.583,5.186-11.583,11.583c0,0.013,0.002,0.025,0.002,0.038c-6.047,0.388-10.835,5.401-10.835,11.545
	c0,6.397,5.186,11.583,11.583,11.583c6.397,0,11.583-5.186,11.583-11.583c0-0.013-0.002-0.025-0.002-0.037
	c0.01-0.001,0.02-0.001,0.029-0.001c-0.008,0.18-0.027,0.357-0.027,0.539c0,6.397,5.186,11.583,11.583,11.583
	c6.397,0,11.583-5.186,11.583-11.583C-307.5,29.645-312.686,24.459-319.083,24.459z M-342.25,42.459
	c-3.544,0-6.417-2.873-6.417-6.417s2.873-6.417,6.417-6.417s6.417,2.873,6.417,6.417S-338.706,42.459-342.25,42.459z
	 M-331.417,30.876c-3.544,0-6.417-2.873-6.417-6.417s2.873-6.417,6.417-6.417S-325,20.916-325,24.459
	S-327.873,30.876-331.417,30.876z M-319.083,42.959c-3.544,0-6.417-2.873-6.417-6.417s2.873-6.417,6.417-6.417
	s6.417,2.873,6.417,6.417S-315.54,42.959-319.083,42.959z"/>
<path d="M-268.5,17.227v-0.018h-6.167c0,2.394-1.94,4.333-4.333,4.333c-0.114,0-0.222-0.025-0.333-0.034
	c-0.112,0.009-0.219,0.034-0.333,0.034c-2.394,0-4.333-1.94-4.333-4.333h-6.167v0.018c-5.643,0.189-10.167,5.101-10.167,11.148
	c0,6.048,4.523,10.96,10.167,11.149v0.018h6.5c0-2.394,1.94-4.333,4.333-4.333s4.333,1.94,4.333,4.333h6.5v-0.018
	c5.643-0.189,10.167-5.101,10.167-11.149C-258.333,22.328-262.856,17.416-268.5,17.227z M-289.833,34.042
	c-2.808,0-5.083-2.276-5.083-5.083c0-2.808,2.276-5.083,5.083-5.083c2.807,0,5.083,2.276,5.083,5.083
	C-284.75,31.766-287.026,34.042-289.833,34.042z M-268.833,34.042c-2.807,0-5.083-2.276-5.083-5.083
	c0-2.808,2.276-5.083,5.083-5.083c2.808,0,5.083,2.276,5.083,5.083C-263.75,31.766-266.025,34.042-268.833,34.042z"/>
<path d="M-204.943,10.625h-42.833c-2.209,0-4,1.791-4,4v25.583c0,2.209,1.791,4,4,4h42.833c2.209,0,4-1.791,4-4V14.625
	C-200.943,12.417-202.734,10.625-204.943,10.625z M-236.277,35.042h-6.333V20.375h6.333V35.042z M-210.11,35.042h-6.333V20.375
	h6.333V35.042z"/>
<path d="M-142.943,11.583h-17.558v10.25h-7.833v-10.25h-17.443c-2.209,0-4,1.791-4,4v25.583c0,2.209,1.791,4,4,4h42.834
	c2.209,0,4-1.791,4-4V15.583C-138.943,13.375-140.734,11.583-142.943,11.583z M-174.277,36h-6.334V21.333h6.334V36z M-148.111,36
	h-6.332V21.333h6.332V36z"/>
<path d="M-86.31,4.458h-29.046l-15.311,15.31v21.398c0,2.209,1.791,4,4,4h50.167c2.209,0,4-1.791,4-4V18.269L-86.31,4.458z
	 M-114.166,37h-6.666V22.167h6.666V37z M-97.166,27.167h-6.666V12.333h6.666V27.167z M-80.833,37h-6.666V22.167h6.666V37z"/>
<path d="M-22.143,0h-29.046l-15.311,15.31v21.398c0,2.209,1.791,4,4,4H-42v-6.833c0-2.209,1.791-4,4-4h1.167c2.209,0,4,1.791,4,4
	v6.833h20.501c2.209,0,4-1.791,4-4V13.811L-22.143,0z M-49.999,32.542h-6.666V17.708h6.666V32.542z M-32.999,22.708h-6.666V7.875
	h6.666V22.708z M-16.666,32.542h-6.666V17.708h6.666V32.542z"/>
<path d="M51.565,7.208H43.5V0H15.311L15,0.311v6.898H8.102L0,15.31v21.398c0,2.209,1.791,4,4,4h20.499v-6.833c0-2.209,1.791-4,4-4
	h1.167c2.209,0,4,1.791,4,4v6.833h20.501c2.209,0,4-1.791,4-4V13.811L51.565,7.208z M16.5,32.542H9.834V17.708H16.5V32.542z
	 M33.5,22.708h-6.666V7.875H33.5V22.708z M49.833,32.542h-6.666V17.708h6.666V32.542z"/>
<path d="M110.898,2.958H82.647L68,17.607v21.102c0,2.209,1.791,4,4,4h50c2.209,0,4-1.791,4-4V18.06L110.898,2.958z M84,36.208h-6.25
	v-15.75H84V36.208z M117.25,36.208H111v-15.75h6.25V36.208z"/>
<path d="M196-2.542h-56.25c-2.209,0-4,1.791-4,4v33.5c0,2.209,1.791,4,4,4H196c2.209,0,4-1.791,4-4v-33.5
	C200-0.75,198.209-2.542,196-2.542z M159.75,7.208h15.75v6.75h-15.75V7.208z M161,29.708h-15.75v-6.75H161V29.708z M190.25,29.708
	H174.5v-6.75h15.75V29.708z"/>
<path d="M253.295-5.792H221.49L205,10.7v23.756c0,2.487,2.017,4.503,4.503,4.503h56.289c2.487,0,4.504-2.016,4.504-4.503V11.209
	L253.295-5.792z M229.648,4.958h15.75v6.75h-15.75V4.958z M230.898,27.458h-15.75v-6.75h15.75V27.458z M260.148,27.458h-15.75v-6.75
	h15.75V27.458z"/>
<path d="M335.25-0.792H279c-2.209,0-4,1.791-4,4v33.5c0,2.209,1.791,4,4,4h56.25c2.209,0,4-1.791,4-4v-33.5
	C339.25,1,337.459-0.792,335.25-0.792z M300,30.958h-15.75v-7H300V30.958z M330.5,30.958h-15.75v-7h15.75V30.958z"/>
</svg>
