<?xml version="1.0" encoding="utf-8"?>
<!-- Generator: Adobe Illustrator 15.1.0, SVG Export Plug-In . SVG Version: 6.00 Build 0)  -->
<!DOCTYPE svg PUBLIC "-//W3C//DTD SVG 1.1//EN" "http://www.w3.org/Graphics/SVG/1.1/DTD/svg11.dtd">
<svg version="1.1" id="Layer_1" xmlns="http://www.w3.org/2000/svg" xmlns:xlink="http://www.w3.org/1999/xlink" x="0px" y="0px"
	 width="58px" height="39.75px" viewBox="0 0 58 39.75" enable-background="new 0 0 58 39.75" xml:space="preserve">
<path d="M-492.167,25.124v-0.041h-8.167h-2.5H-511v0.041c-5.125,0.411-9.167,4.968-9.167,10.542c0,5.575,4.042,10.132,9.167,10.543
	v0.041h8.167h2.5h8.167v-0.041c5.125-0.411,9.167-4.968,9.167-10.543C-483,30.092-487.042,25.535-492.167,25.124z M-508.416,40.75
	c-2.808,0-5.083-2.276-5.083-5.083c0-2.808,2.275-5.083,5.083-5.083c2.808,0,5.083,2.275,5.083,5.083
	C-503.333,38.474-505.608,40.75-508.416,40.75z M-493.583,40.75c-2.808,0-5.083-2.276-5.083-5.083c0-2.808,2.275-5.083,5.083-5.083
	c2.808,0,5.083,2.275,5.083,5.083C-488.5,38.474-490.775,40.75-493.583,40.75z"/>
<path d="M-442,22.583v-7.167h-11.5H-465v7.167c-6.351,0-11.5,5.149-11.5,11.5s5.149,11.5,11.5,11.5s11.5-5.149,11.5-11.5
	c0,6.351,5.149,11.5,11.5,11.5s11.5-5.149,11.5-11.5S-435.648,22.583-442,22.583z M-465,41.083c-3.498,0-6.333-2.947-6.333-6.583
	c0-3.636,2.835-6.583,6.333-6.583c3.498,0,6.333,2.947,6.333,6.583C-458.666,38.135-461.501,41.083-465,41.083z M-442,41.083
	c-3.498,0-6.333-2.947-6.333-6.583c0-3.636,2.835-6.583,6.333-6.583c3.498,0,6.333,2.947,6.333,6.583
	C-435.667,38.135-438.502,41.083-442,41.083z"/>
<path d="M-387.083,21.5c-0.262,0-0.519,0.022-0.777,0.039c0.008-0.18,0.027-0.357,0.027-0.539c0-6.397-5.186-11.583-11.583-11.583
	C-405.813,9.417-411,14.604-411,21c0,0.013,0.002,0.025,0.002,0.038c-6.047,0.388-10.835,5.401-10.835,11.545
	c0,6.397,5.186,11.583,11.583,11.583c6.397,0,11.583-5.186,11.583-11.583c0-0.013-0.002-0.025-0.002-0.037
	c0.01-0.001,0.02-0.001,0.029-0.001c-0.008,0.18-0.027,0.357-0.027,0.539c0,6.397,5.186,11.583,11.583,11.583
	c6.397,0,11.583-5.186,11.583-11.583C-375.5,26.687-380.686,21.5-387.083,21.5z M-410.25,39.5c-3.544,0-6.417-2.873-6.417-6.417
	s2.873-6.417,6.417-6.417s6.417,2.873,6.417,6.417S-406.706,39.5-410.25,39.5z M-399.417,27.917c-3.544,0-6.417-2.873-6.417-6.417
	s2.873-6.417,6.417-6.417S-393,17.957-393,21.501S-395.873,27.917-399.417,27.917z M-387.083,40c-3.544,0-6.417-2.873-6.417-6.417
	s2.873-6.417,6.417-6.417s6.417,2.873,6.417,6.417S-383.54,40-387.083,40z"/>
<path d="M-336.5,14.268V14.25h-6.167c0,2.394-1.94,4.333-4.333,4.333c-0.114,0-0.222-0.025-0.333-0.034
	c-0.112,0.009-0.219,0.034-0.333,0.034c-2.394,0-4.333-1.94-4.333-4.333h-6.167v0.018c-5.643,0.189-10.167,5.101-10.167,11.148
	c0,6.048,4.523,10.96,10.167,11.149v0.018h6.5c0-2.394,1.94-4.333,4.333-4.333S-343,34.19-343,36.583h6.5v-0.018
	c5.643-0.189,10.167-5.101,10.167-11.149C-326.333,19.369-330.856,14.457-336.5,14.268z M-357.833,31.083
	c-2.808,0-5.083-2.276-5.083-5.083c0-2.808,2.276-5.083,5.083-5.083c2.807,0,5.083,2.276,5.083,5.083
	C-352.75,28.808-355.026,31.083-357.833,31.083z M-336.833,31.083c-2.807,0-5.083-2.276-5.083-5.083
	c0-2.808,2.276-5.083,5.083-5.083c2.808,0,5.083,2.276,5.083,5.083C-331.75,28.808-334.025,31.083-336.833,31.083z"/>
<path d="M-272.943,7.667h-42.833c-2.209,0-4,1.791-4,4V37.25c0,2.209,1.791,4,4,4h42.833c2.209,0,4-1.791,4-4V11.667
	C-268.943,9.458-270.734,7.667-272.943,7.667z M-304.277,32.083h-6.333V17.417h6.333V32.083z M-278.11,32.083h-6.333V17.417h6.333
	V32.083z"/>
<path d="M-210.943,8.625h-17.558v10.25h-7.833V8.625h-17.443c-2.209,0-4,1.791-4,4v25.583c0,2.209,1.791,4,4,4h42.834
	c2.209,0,4-1.791,4-4V12.625C-206.943,10.416-208.734,8.625-210.943,8.625z M-242.277,33.042h-6.334V18.375h6.334V33.042z
	 M-216.111,33.042h-6.332V18.375h6.332V33.042z"/>
<path d="M-154.31,1.5h-29.046l-15.311,15.31v21.398c0,2.209,1.791,4,4,4h50.167c2.209,0,4-1.791,4-4V15.31L-154.31,1.5z
	 M-182.166,34.042h-6.666V19.208h6.666V34.042z M-165.166,24.208h-6.666V9.375h6.666V24.208z M-148.833,34.042h-6.666V19.208h6.666
	V34.042z"/>
<path d="M-90.143-2.958h-29.046l-15.311,15.31V33.75c0,2.209,1.791,4,4,4H-110v-6.833c0-2.209,1.791-4,4-4h1.167
	c2.209,0,4,1.791,4,4v6.833h20.501c2.209,0,4-1.791,4-4V10.852L-90.143-2.958z M-117.999,29.583h-6.666V14.75h6.666V29.583z
	 M-100.999,19.75h-6.666V4.917h6.666V19.75z M-84.666,29.583h-6.666V14.75h6.666V29.583z"/>
<path d="M-16.435,4.25H-24.5v-7.208h-28.189L-53-2.648V4.25h-6.898L-68,12.352V33.75c0,2.209,1.791,4,4,4h20.499v-6.833
	c0-2.209,1.791-4,4-4h1.167c2.209,0,4,1.791,4,4v6.833h20.501c2.209,0,4-1.791,4-4V10.852L-16.435,4.25z M-51.5,29.583h-6.666V14.75
	h6.666V29.583z M-34.5,19.75h-6.666V4.917h6.666V19.75z M-18.167,29.583h-6.666V14.75h6.666V29.583z"/>
<path d="M42.898,0H14.647L0,14.648V35.75c0,2.209,1.791,4,4,4h50c2.209,0,4-1.791,4-4V15.102L42.898,0z M16,33.25H9.75V17.5H16
	V33.25z M49.25,33.25H43V17.5h6.25V33.25z"/>
<path d="M128-5.5H71.75c-2.209,0-4,1.791-4,4V32c0,2.209,1.791,4,4,4H128c2.209,0,4-1.791,4-4V-1.5C132-3.709,130.209-5.5,128-5.5z
	 M91.75,4.25h15.75V11H91.75V4.25z M93,26.75H77.25V20H93V26.75z M122.25,26.75H106.5V20h15.75V26.75z"/>
<path d="M185.295-8.75H153.49L137,7.741v23.756c0,2.487,2.017,4.503,4.503,4.503h56.289c2.487,0,4.504-2.016,4.504-4.503V8.251
	L185.295-8.75z M161.648,2h15.75v6.75h-15.75V2z M162.898,24.5h-15.75v-6.75h15.75V24.5z M192.148,24.5h-15.75v-6.75h15.75V24.5z"/>
<path d="M267.25-3.75H211c-2.209,0-4,1.791-4,4v33.5c0,2.209,1.791,4,4,4h56.25c2.209,0,4-1.791,4-4V0.25
	C271.25-1.959,269.459-3.75,267.25-3.75z M232,28h-15.75v-7H232V28z M262.5,28h-15.75v-7h15.75V28z"/>
</svg>
