<?xml version="1.0" encoding="utf-8"?>
<!-- Generator: Adobe Illustrator 15.1.0, SVG Export Plug-In . SVG Version: 6.00 Build 0)  -->
<!DOCTYPE svg PUBLIC "-//W3C//DTD SVG 1.1//EN" "http://www.w3.org/Graphics/SVG/1.1/DTD/svg11.dtd">
<svg version="1.1" id="Layer_1" xmlns="http://www.w3.org/2000/svg" xmlns:xlink="http://www.w3.org/1999/xlink" x="0px" y="0px"
	 width="64.25px" height="41.5px" viewBox="0 0 64.25 41.5" enable-background="new 0 0 64.25 41.5" xml:space="preserve">
<path d="M-559.917,30.624v-0.041h-8.167h-2.5h-8.167v0.041c-5.125,0.411-9.167,4.968-9.167,10.542
	c0,5.575,4.042,10.132,9.167,10.543v0.041h8.167h2.5h8.167v-0.041c5.125-0.411,9.167-4.968,9.167-10.543
	C-550.75,35.592-554.792,31.035-559.917,30.624z M-576.166,46.25c-2.808,0-5.083-2.276-5.083-5.083c0-2.808,2.275-5.083,5.083-5.083
	c2.808,0,5.083,2.275,5.083,5.083C-571.083,43.974-573.358,46.25-576.166,46.25z M-561.333,46.25c-2.808,0-5.083-2.276-5.083-5.083
	c0-2.808,2.275-5.083,5.083-5.083c2.808,0,5.083,2.275,5.083,5.083C-556.25,43.974-558.525,46.25-561.333,46.25z"/>
<path d="M-509.75,28.083v-7.167h-11.5h-11.5v7.167c-6.351,0-11.5,5.149-11.5,11.5s5.149,11.5,11.5,11.5s11.5-5.149,11.5-11.5
	c0,6.351,5.149,11.5,11.5,11.5s11.5-5.149,11.5-11.5S-503.398,28.083-509.75,28.083z M-532.75,46.583
	c-3.498,0-6.333-2.947-6.333-6.583c0-3.636,2.835-6.583,6.333-6.583c3.498,0,6.333,2.947,6.333,6.583
	C-526.416,43.635-529.251,46.583-532.75,46.583z M-509.75,46.583c-3.498,0-6.333-2.947-6.333-6.583c0-3.636,2.835-6.583,6.333-6.583
	c3.498,0,6.333,2.947,6.333,6.583C-503.417,43.635-506.252,46.583-509.75,46.583z"/>
<path d="M-454.833,27c-0.262,0-0.519,0.022-0.777,0.039c0.008-0.18,0.027-0.357,0.027-0.539c0-6.397-5.186-11.583-11.583-11.583
	c-6.397,0-11.583,5.186-11.583,11.583c0,0.013,0.002,0.025,0.002,0.038c-6.047,0.388-10.835,5.401-10.835,11.545
	c0,6.397,5.186,11.583,11.583,11.583c6.397,0,11.583-5.186,11.583-11.583c0-0.013-0.002-0.025-0.002-0.037
	c0.01-0.001,0.02-0.001,0.029-0.001c-0.008,0.18-0.027,0.357-0.027,0.539c0,6.397,5.186,11.583,11.583,11.583
	c6.397,0,11.583-5.186,11.583-11.583C-443.25,32.187-448.436,27-454.833,27z M-478,45c-3.544,0-6.417-2.873-6.417-6.417
	s2.873-6.417,6.417-6.417s6.417,2.873,6.417,6.417S-474.456,45-478,45z M-467.167,33.417c-3.544,0-6.417-2.873-6.417-6.417
	s2.873-6.417,6.417-6.417s6.417,2.873,6.417,6.417S-463.623,33.417-467.167,33.417z M-454.833,45.5
	c-3.544,0-6.417-2.873-6.417-6.417s2.873-6.417,6.417-6.417s6.417,2.873,6.417,6.417S-451.29,45.5-454.833,45.5z"/>
<path d="M-404.25,19.768V19.75h-6.167c0,2.394-1.94,4.333-4.333,4.333c-0.114,0-0.222-0.025-0.333-0.034
	c-0.112,0.009-0.219,0.034-0.333,0.034c-2.394,0-4.333-1.94-4.333-4.333h-6.167v0.018c-5.643,0.189-10.167,5.101-10.167,11.148
	c0,6.048,4.523,10.96,10.167,11.149v0.018h6.5c0-2.394,1.94-4.333,4.333-4.333s4.333,1.94,4.333,4.333h6.5v-0.018
	c5.643-0.189,10.167-5.101,10.167-11.149C-394.083,24.869-398.606,19.957-404.25,19.768z M-425.583,36.583
	c-2.808,0-5.083-2.276-5.083-5.083c0-2.808,2.276-5.083,5.083-5.083c2.807,0,5.083,2.276,5.083,5.083
	C-420.5,34.308-422.776,36.583-425.583,36.583z M-404.583,36.583c-2.807,0-5.083-2.276-5.083-5.083c0-2.808,2.276-5.083,5.083-5.083
	c2.808,0,5.083,2.276,5.083,5.083C-399.5,34.308-401.775,36.583-404.583,36.583z"/>
<path d="M-340.693,13.167h-42.833c-2.209,0-4,1.791-4,4V42.75c0,2.209,1.791,4,4,4h42.833c2.209,0,4-1.791,4-4V17.167
	C-336.693,14.958-338.484,13.167-340.693,13.167z M-372.027,37.583h-6.333V22.917h6.333V37.583z M-345.86,37.583h-6.333V22.917
	h6.333V37.583z"/>
<path d="M-278.693,14.125h-17.558v10.25h-7.833v-10.25h-17.443c-2.209,0-4,1.791-4,4v25.583c0,2.209,1.791,4,4,4h42.834
	c2.209,0,4-1.791,4-4V18.125C-274.693,15.916-276.484,14.125-278.693,14.125z M-310.027,38.542h-6.334V23.875h6.334V38.542z
	 M-283.861,38.542h-6.332V23.875h6.332V38.542z"/>
<path d="M-222.06,7h-29.046l-15.311,15.31v21.398c0,2.209,1.791,4,4,4h50.167c2.209,0,4-1.791,4-4V20.81L-222.06,7z
	 M-249.916,39.542h-6.666V24.708h6.666V39.542z M-232.916,29.708h-6.666V14.875h6.666V29.708z M-216.583,39.542h-6.666V24.708h6.666
	V39.542z"/>
<path d="M-157.893,2.542h-29.046l-15.311,15.31V39.25c0,2.209,1.791,4,4,4h20.499v-6.833c0-2.209,1.791-4,4-4h1.167
	c2.209,0,4,1.791,4,4v6.833h20.501c2.209,0,4-1.791,4-4V16.352L-157.893,2.542z M-185.749,35.083h-6.666V20.25h6.666V35.083z
	 M-168.749,25.25h-6.666V10.417h6.666V25.25z M-152.416,35.083h-6.666V20.25h6.666V35.083z"/>
<path d="M-84.185,9.75h-8.065V2.542h-28.189l-0.311,0.311V9.75h-6.898l-8.102,8.102V39.25c0,2.209,1.791,4,4,4h20.499v-6.833
	c0-2.209,1.791-4,4-4h1.167c2.209,0,4,1.791,4,4v6.833h20.501c2.209,0,4-1.791,4-4V16.352L-84.185,9.75z M-119.25,35.083h-6.666
	V20.25h6.666V35.083z M-102.25,25.25h-6.666V10.417h6.666V25.25z M-85.917,35.083h-6.666V20.25h6.666V35.083z"/>
<path d="M-24.852,5.5h-28.251L-67.75,20.148V41.25c0,2.209,1.791,4,4,4h50c2.209,0,4-1.791,4-4V20.602L-24.852,5.5z M-51.75,38.75
	H-58V23h6.25V38.75z M-18.5,38.75h-6.25V23h6.25V38.75z"/>
<path d="M60.25,0H4C1.791,0,0,1.791,0,4v33.5c0,2.209,1.791,4,4,4h56.25c2.209,0,4-1.791,4-4V4C64.25,1.791,62.459,0,60.25,0z
	 M24,9.75h15.75v6.75H24V9.75z M25.25,32.25H9.5V25.5h15.75V32.25z M54.5,32.25H38.75V25.5H54.5V32.25z"/>
<path d="M117.545-3.25H85.74L69.25,13.241v23.756c0,2.487,2.017,4.503,4.503,4.503h56.289c2.487,0,4.504-2.016,4.504-4.503V13.751
	L117.545-3.25z M93.898,7.5h15.75v6.75h-15.75V7.5z M95.148,30h-15.75v-6.75h15.75V30z M124.398,30h-15.75v-6.75h15.75V30z"/>
<path d="M199.5,1.75h-56.25c-2.209,0-4,1.791-4,4v33.5c0,2.209,1.791,4,4,4h56.25c2.209,0,4-1.791,4-4V5.75
	C203.5,3.541,201.709,1.75,199.5,1.75z M164.25,33.5H148.5v-7h15.75V33.5z M194.75,33.5H179v-7h15.75V33.5z"/>
</svg>
