<?xml version="1.0" encoding="utf-8"?>
<!-- Generator: Adobe Illustrator 15.1.0, SVG Export Plug-In . SVG Version: 6.00 Build 0)  -->
<!DOCTYPE svg PUBLIC "-//W3C//DTD SVG 1.1//EN" "http://www.w3.org/Graphics/SVG/1.1/DTD/svg11.dtd">
<svg version="1.1" id="Layer_1" xmlns="http://www.w3.org/2000/svg" xmlns:xlink="http://www.w3.org/1999/xlink" x="0px" y="0px"
	 width="65.296px" height="44.75px" viewBox="0 0 65.296 44.75" enable-background="new 0 0 65.296 44.75" xml:space="preserve">
<path d="M-629.167,33.874v-0.041h-8.167h-2.5H-648v0.041c-5.125,0.411-9.167,4.968-9.167,10.542c0,5.575,4.042,10.132,9.167,10.543
	V55h8.167h2.5h8.167v-0.041c5.125-0.411,9.167-4.968,9.167-10.543C-620,38.842-624.042,34.285-629.167,33.874z M-645.416,49.5
	c-2.808,0-5.083-2.276-5.083-5.083c0-2.808,2.275-5.083,5.083-5.083c2.808,0,5.083,2.275,5.083,5.083
	C-640.333,47.224-642.608,49.5-645.416,49.5z M-630.583,49.5c-2.808,0-5.083-2.276-5.083-5.083c0-2.808,2.275-5.083,5.083-5.083
	c2.808,0,5.083,2.275,5.083,5.083C-625.5,47.224-627.775,49.5-630.583,49.5z"/>
<path d="M-579,31.333v-7.167h-11.5H-602v7.167c-6.351,0-11.5,5.149-11.5,11.5s5.149,11.5,11.5,11.5s11.5-5.149,11.5-11.5
	c0,6.351,5.149,11.5,11.5,11.5s11.5-5.149,11.5-11.5S-572.648,31.333-579,31.333z M-602,49.833c-3.498,0-6.333-2.947-6.333-6.583
	c0-3.636,2.835-6.583,6.333-6.583c3.498,0,6.333,2.947,6.333,6.583C-595.666,46.885-598.501,49.833-602,49.833z M-579,49.833
	c-3.498,0-6.333-2.947-6.333-6.583c0-3.636,2.835-6.583,6.333-6.583c3.498,0,6.333,2.947,6.333,6.583
	C-572.667,46.885-575.502,49.833-579,49.833z"/>
<path d="M-524.083,30.25c-0.262,0-0.519,0.022-0.777,0.039c0.008-0.18,0.027-0.357,0.027-0.539c0-6.397-5.186-11.583-11.583-11.583
	c-6.397,0-11.583,5.186-11.583,11.583c0,0.013,0.002,0.025,0.002,0.038c-6.047,0.388-10.835,5.401-10.835,11.545
	c0,6.397,5.186,11.583,11.583,11.583c6.397,0,11.583-5.186,11.583-11.583c0-0.013-0.002-0.025-0.002-0.037
	c0.01-0.001,0.02-0.001,0.029-0.001c-0.008,0.18-0.027,0.357-0.027,0.539c0,6.397,5.186,11.583,11.583,11.583
	c6.397,0,11.583-5.186,11.583-11.583C-512.5,35.437-517.686,30.25-524.083,30.25z M-547.25,48.25c-3.544,0-6.417-2.873-6.417-6.417
	s2.873-6.417,6.417-6.417s6.417,2.873,6.417,6.417S-543.706,48.25-547.25,48.25z M-536.417,36.667c-3.544,0-6.417-2.873-6.417-6.417
	s2.873-6.417,6.417-6.417S-530,26.707-530,30.251S-532.873,36.667-536.417,36.667z M-524.083,48.75
	c-3.544,0-6.417-2.873-6.417-6.417s2.873-6.417,6.417-6.417s6.417,2.873,6.417,6.417S-520.54,48.75-524.083,48.75z"/>
<path d="M-473.5,23.018V23h-6.167c0,2.394-1.94,4.333-4.333,4.333c-0.114,0-0.222-0.025-0.333-0.034
	c-0.112,0.009-0.219,0.034-0.333,0.034c-2.394,0-4.333-1.94-4.333-4.333h-6.167v0.018c-5.643,0.189-10.167,5.101-10.167,11.148
	c0,6.048,4.523,10.96,10.167,11.149v0.018h6.5c0-2.394,1.94-4.333,4.333-4.333S-480,42.94-480,45.333h6.5v-0.018
	c5.643-0.189,10.167-5.101,10.167-11.149C-463.333,28.119-467.856,23.207-473.5,23.018z M-494.833,39.833
	c-2.808,0-5.083-2.276-5.083-5.083c0-2.808,2.276-5.083,5.083-5.083c2.807,0,5.083,2.276,5.083,5.083
	C-489.75,37.558-492.026,39.833-494.833,39.833z M-473.833,39.833c-2.807,0-5.083-2.276-5.083-5.083
	c0-2.808,2.276-5.083,5.083-5.083c2.808,0,5.083,2.276,5.083,5.083C-468.75,37.558-471.025,39.833-473.833,39.833z"/>
<path d="M-409.943,16.417h-42.833c-2.209,0-4,1.791-4,4V46c0,2.209,1.791,4,4,4h42.833c2.209,0,4-1.791,4-4V20.417
	C-405.943,18.208-407.734,16.417-409.943,16.417z M-441.277,40.833h-6.333V26.167h6.333V40.833z M-415.11,40.833h-6.333V26.167
	h6.333V40.833z"/>
<path d="M-347.943,17.375h-17.558v10.25h-7.833v-10.25h-17.443c-2.209,0-4,1.791-4,4v25.583c0,2.209,1.791,4,4,4h42.834
	c2.209,0,4-1.791,4-4V21.375C-343.943,19.166-345.734,17.375-347.943,17.375z M-379.277,41.792h-6.334V27.125h6.334V41.792z
	 M-353.111,41.792h-6.332V27.125h6.332V41.792z"/>
<path d="M-291.31,10.25h-29.046l-15.311,15.31v21.398c0,2.209,1.791,4,4,4h50.167c2.209,0,4-1.791,4-4V24.06L-291.31,10.25z
	 M-319.166,42.792h-6.666V27.958h6.666V42.792z M-302.166,32.958h-6.666V18.125h6.666V32.958z M-285.833,42.792h-6.666V27.958h6.666
	V42.792z"/>
<path d="M-227.143,5.792h-29.046l-15.311,15.31V42.5c0,2.209,1.791,4,4,4H-247v-6.833c0-2.209,1.791-4,4-4h1.167
	c2.209,0,4,1.791,4,4V46.5h20.501c2.209,0,4-1.791,4-4V19.602L-227.143,5.792z M-254.999,38.333h-6.666V23.5h6.666V38.333z
	 M-237.999,28.5h-6.666V13.667h6.666V28.5z M-221.666,38.333h-6.666V23.5h6.666V38.333z"/>
<path d="M-153.435,13h-8.065V5.792h-28.189L-190,6.102V13h-6.898L-205,21.102V42.5c0,2.209,1.791,4,4,4h20.499v-6.833
	c0-2.209,1.791-4,4-4h1.167c2.209,0,4,1.791,4,4V46.5h20.501c2.209,0,4-1.791,4-4V19.602L-153.435,13z M-188.5,38.333h-6.666V23.5
	h6.666V38.333z M-171.5,28.5h-6.666V13.667h6.666V28.5z M-155.167,38.333h-6.666V23.5h6.666V38.333z"/>
<path d="M-94.102,8.75h-28.251L-137,23.398V44.5c0,2.209,1.791,4,4,4h50c2.209,0,4-1.791,4-4V23.852L-94.102,8.75z M-121,42h-6.25
	V26.25h6.25V42z M-87.75,42H-94V26.25h6.25V42z"/>
<path d="M-9,3.25h-56.25c-2.209,0-4,1.791-4,4v33.5c0,2.209,1.791,4,4,4H-9c2.209,0,4-1.791,4-4V7.25C-5,5.041-6.791,3.25-9,3.25z
	 M-45.25,13h15.75v6.75h-15.75V13z M-44,35.5h-15.75v-6.75H-44V35.5z M-14.75,35.5H-30.5v-6.75h15.75V35.5z"/>
<path d="M48.295,0H16.49L0,16.491v23.756c0,2.487,2.017,4.503,4.503,4.503h56.289c2.487,0,4.504-2.016,4.504-4.503V17.001L48.295,0z
	 M24.648,10.75h15.75v6.75h-15.75V10.75z M25.898,33.25h-15.75V26.5h15.75V33.25z M55.148,33.25h-15.75V26.5h15.75V33.25z"/>
<path d="M130.25,5H74c-2.209,0-4,1.791-4,4v33.5c0,2.209,1.791,4,4,4h56.25c2.209,0,4-1.791,4-4V9C134.25,6.791,132.459,5,130.25,5z
	 M95,36.75H79.25v-7H95V36.75z M125.5,36.75h-15.75v-7h15.75V36.75z"/>
</svg>
