<?xml version="1.0" encoding="utf-8"?>
<!-- Generator: Adobe Illustrator 15.1.0, SVG Export Plug-In . SVG Version: 6.00 Build 0)  -->
<!DOCTYPE svg PUBLIC "-//W3C//DTD SVG 1.1//EN" "http://www.w3.org/Graphics/SVG/1.1/DTD/svg11.dtd">
<svg version="1.1" id="Layer_1" xmlns="http://www.w3.org/2000/svg" xmlns:xlink="http://www.w3.org/1999/xlink" x="0px" y="0px"
	 width="64.25px" height="41.5px" viewBox="0 0 64.25 41.5" enable-background="new 0 0 64.25 41.5" xml:space="preserve">
<path d="M-699.167,28.874v-0.041h-8.167h-2.5H-718v0.041c-5.125,0.411-9.167,4.968-9.167,10.542c0,5.575,4.042,10.132,9.167,10.543
	V50h8.167h2.5h8.167v-0.041c5.125-0.411,9.167-4.968,9.167-10.543C-690,33.842-694.042,29.285-699.167,28.874z M-715.416,44.5
	c-2.808,0-5.083-2.276-5.083-5.083c0-2.808,2.275-5.083,5.083-5.083c2.808,0,5.083,2.275,5.083,5.083
	C-710.333,42.224-712.608,44.5-715.416,44.5z M-700.583,44.5c-2.808,0-5.083-2.276-5.083-5.083c0-2.808,2.275-5.083,5.083-5.083
	c2.808,0,5.083,2.275,5.083,5.083C-695.5,42.224-697.775,44.5-700.583,44.5z"/>
<path d="M-649,26.333v-7.167h-11.5H-672v7.167c-6.351,0-11.5,5.149-11.5,11.5s5.149,11.5,11.5,11.5s11.5-5.149,11.5-11.5
	c0,6.351,5.149,11.5,11.5,11.5s11.5-5.149,11.5-11.5S-642.648,26.333-649,26.333z M-672,44.833c-3.498,0-6.333-2.947-6.333-6.583
	c0-3.636,2.835-6.583,6.333-6.583c3.498,0,6.333,2.947,6.333,6.583C-665.666,41.885-668.501,44.833-672,44.833z M-649,44.833
	c-3.498,0-6.333-2.947-6.333-6.583c0-3.636,2.835-6.583,6.333-6.583c3.498,0,6.333,2.947,6.333,6.583
	C-642.667,41.885-645.502,44.833-649,44.833z"/>
<path d="M-594.083,25.25c-0.262,0-0.519,0.022-0.777,0.039c0.008-0.18,0.027-0.357,0.027-0.539c0-6.397-5.186-11.583-11.583-11.583
	c-6.397,0-11.583,5.186-11.583,11.583c0,0.013,0.002,0.025,0.002,0.038c-6.047,0.388-10.835,5.401-10.835,11.545
	c0,6.397,5.186,11.583,11.583,11.583c6.397,0,11.583-5.186,11.583-11.583c0-0.013-0.002-0.025-0.002-0.037
	c0.01-0.001,0.02-0.001,0.029-0.001c-0.008,0.18-0.027,0.357-0.027,0.539c0,6.397,5.186,11.583,11.583,11.583
	c6.397,0,11.583-5.186,11.583-11.583C-582.5,30.437-587.686,25.25-594.083,25.25z M-617.25,43.25c-3.544,0-6.417-2.873-6.417-6.417
	s2.873-6.417,6.417-6.417s6.417,2.873,6.417,6.417S-613.706,43.25-617.25,43.25z M-606.417,31.667c-3.544,0-6.417-2.873-6.417-6.417
	s2.873-6.417,6.417-6.417S-600,21.707-600,25.251S-602.873,31.667-606.417,31.667z M-594.083,43.75
	c-3.544,0-6.417-2.873-6.417-6.417s2.873-6.417,6.417-6.417s6.417,2.873,6.417,6.417S-590.54,43.75-594.083,43.75z"/>
<path d="M-543.5,18.018V18h-6.167c0,2.394-1.94,4.333-4.333,4.333c-0.114,0-0.222-0.025-0.333-0.034
	c-0.112,0.009-0.219,0.034-0.333,0.034c-2.394,0-4.333-1.94-4.333-4.333h-6.167v0.018c-5.643,0.189-10.167,5.101-10.167,11.148
	c0,6.048,4.523,10.96,10.167,11.149v0.018h6.5c0-2.394,1.94-4.333,4.333-4.333S-550,37.94-550,40.333h6.5v-0.018
	c5.643-0.189,10.167-5.101,10.167-11.149C-533.333,23.119-537.856,18.207-543.5,18.018z M-564.833,34.833
	c-2.808,0-5.083-2.276-5.083-5.083c0-2.808,2.276-5.083,5.083-5.083c2.807,0,5.083,2.276,5.083,5.083
	C-559.75,32.558-562.026,34.833-564.833,34.833z M-543.833,34.833c-2.807,0-5.083-2.276-5.083-5.083
	c0-2.808,2.276-5.083,5.083-5.083c2.808,0,5.083,2.276,5.083,5.083C-538.75,32.558-541.025,34.833-543.833,34.833z"/>
<path d="M-479.943,11.417h-42.833c-2.209,0-4,1.791-4,4V41c0,2.209,1.791,4,4,4h42.833c2.209,0,4-1.791,4-4V15.417
	C-475.943,13.208-477.734,11.417-479.943,11.417z M-511.277,35.833h-6.333V21.167h6.333V35.833z M-485.11,35.833h-6.333V21.167
	h6.333V35.833z"/>
<path d="M-417.943,12.375h-17.558v10.25h-7.833v-10.25h-17.443c-2.209,0-4,1.791-4,4v25.583c0,2.209,1.791,4,4,4h42.834
	c2.209,0,4-1.791,4-4V16.375C-413.943,14.166-415.734,12.375-417.943,12.375z M-449.277,36.792h-6.334V22.125h6.334V36.792z
	 M-423.111,36.792h-6.332V22.125h6.332V36.792z"/>
<path d="M-361.31,5.25h-29.046l-15.311,15.31v21.398c0,2.209,1.791,4,4,4h50.167c2.209,0,4-1.791,4-4V19.06L-361.31,5.25z
	 M-389.166,37.792h-6.666V22.958h6.666V37.792z M-372.166,27.958h-6.666V13.125h6.666V27.958z M-355.833,37.792h-6.666V22.958h6.666
	V37.792z"/>
<path d="M-297.143,0.792h-29.046l-15.311,15.31V37.5c0,2.209,1.791,4,4,4H-317v-6.833c0-2.209,1.791-4,4-4h1.167
	c2.209,0,4,1.791,4,4V41.5h20.501c2.209,0,4-1.791,4-4V14.602L-297.143,0.792z M-324.999,33.333h-6.666V18.5h6.666V33.333z
	 M-307.999,23.5h-6.666V8.667h6.666V23.5z M-291.666,33.333h-6.666V18.5h6.666V33.333z"/>
<path d="M-223.435,8h-8.065V0.792h-28.189L-260,1.102V8h-6.898L-275,16.102V37.5c0,2.209,1.791,4,4,4h20.499v-6.833
	c0-2.209,1.791-4,4-4h1.167c2.209,0,4,1.791,4,4V41.5h20.501c2.209,0,4-1.791,4-4V14.602L-223.435,8z M-258.5,33.333h-6.666V18.5
	h6.666V33.333z M-241.5,23.5h-6.666V8.667h6.666V23.5z M-225.167,33.333h-6.666V18.5h6.666V33.333z"/>
<path d="M-164.102,3.75h-28.251L-207,18.398V39.5c0,2.209,1.791,4,4,4h50c2.209,0,4-1.791,4-4V18.852L-164.102,3.75z M-191,37h-6.25
	V21.25h6.25V37z M-157.75,37H-164V21.25h6.25V37z"/>
<path d="M-79-1.75h-56.25c-2.209,0-4,1.791-4,4v33.5c0,2.209,1.791,4,4,4H-79c2.209,0,4-1.791,4-4V2.25
	C-75,0.041-76.791-1.75-79-1.75z M-115.25,8h15.75v6.75h-15.75V8z M-114,30.5h-15.75v-6.75H-114V30.5z M-84.75,30.5h-15.75v-6.75
	h15.75V30.5z"/>
<path d="M-21.705-5H-53.51L-70,11.491v23.756c0,2.487,2.017,4.503,4.503,4.503h56.289c2.487,0,4.504-2.016,4.504-4.503V12.001
	L-21.705-5z M-45.352,5.75h15.75v6.75h-15.75V5.75z M-44.102,28.25h-15.75V21.5h15.75V28.25z M-14.852,28.25h-15.75V21.5h15.75
	V28.25z"/>
<path d="M60.25,0H4C1.791,0,0,1.791,0,4v33.5c0,2.209,1.791,4,4,4h56.25c2.209,0,4-1.791,4-4V4C64.25,1.791,62.459,0,60.25,0z
	 M25,31.75H9.25v-7H25V31.75z M55.5,31.75H39.75v-7H55.5V31.75z"/>
</svg>
