<?xml version="1.0" encoding="utf-8"?>
<!-- Generator: Adobe Illustrator 15.1.0, SVG Export Plug-In . SVG Version: 6.00 Build 0)  -->
<!DOCTYPE svg PUBLIC "-//W3C//DTD SVG 1.1//EN" "http://www.w3.org/Graphics/SVG/1.1/DTD/svg11.dtd">
<svg version="1.1" id="Layer_1" xmlns="http://www.w3.org/2000/svg" xmlns:xlink="http://www.w3.org/1999/xlink" x="0px" y="0px"
	 width="45.884px" height="30.167px" viewBox="0 0 45.884 30.167" enable-background="new 0 0 45.884 30.167" xml:space="preserve">
<path d="M-15.783,9.708V9.667h-8.167h-2.5h-8.167v0.041c-5.125,0.411-9.167,4.968-9.167,10.542c0,5.575,4.042,10.132,9.167,10.543
	v0.041h8.167h2.5h8.167v-0.041c5.125-0.411,9.167-4.968,9.167-10.543C-6.616,14.676-10.658,10.119-15.783,9.708z M-32.032,25.334
	c-2.808,0-5.083-2.276-5.083-5.083c0-2.808,2.275-5.083,5.083-5.083c2.808,0,5.083,2.275,5.083,5.083
	C-26.949,23.058-29.225,25.334-32.032,25.334z M-17.199,25.334c-2.808,0-5.083-2.276-5.083-5.083c0-2.808,2.275-5.083,5.083-5.083
	c2.808,0,5.083,2.275,5.083,5.083C-12.116,23.058-14.392,25.334-17.199,25.334z"/>
<path d="M34.384,7.167V0h-11.5h-11.5v7.167c-6.351,0-11.5,5.149-11.5,11.5s5.149,11.5,11.5,11.5s11.5-5.149,11.5-11.5
	c0,6.351,5.149,11.5,11.5,11.5s11.5-5.149,11.5-11.5S40.735,7.167,34.384,7.167z M11.384,25.667c-3.498,0-6.333-2.947-6.333-6.583
	c0-3.636,2.835-6.583,6.333-6.583c3.498,0,6.333,2.947,6.333,6.583C17.718,22.719,14.882,25.667,11.384,25.667z M34.384,25.667
	c-3.498,0-6.333-2.947-6.333-6.583c0-3.636,2.835-6.583,6.333-6.583c3.498,0,6.333,2.947,6.333,6.583
	C40.717,22.719,37.882,25.667,34.384,25.667z"/>
<path d="M89.301,6.084c-0.262,0-0.519,0.022-0.777,0.039c0.008-0.18,0.027-0.357,0.027-0.539c0-6.397-5.186-11.583-11.583-11.583
	c-6.397,0-11.583,5.186-11.583,11.583c0,0.013,0.002,0.025,0.002,0.038c-6.047,0.388-10.835,5.401-10.835,11.545
	c0,6.397,5.186,11.583,11.583,11.583c6.397,0,11.583-5.186,11.583-11.583c0-0.013-0.002-0.025-0.002-0.037
	c0.01-0.001,0.02-0.001,0.029-0.001c-0.008,0.18-0.027,0.357-0.027,0.539c0,6.397,5.186,11.583,11.583,11.583
	c6.397,0,11.583-5.186,11.583-11.583C100.884,11.271,95.698,6.084,89.301,6.084z M66.134,24.084c-3.544,0-6.417-2.873-6.417-6.417
	s2.873-6.417,6.417-6.417s6.417,2.873,6.417,6.417S69.678,24.084,66.134,24.084z M76.967,12.501c-3.544,0-6.417-2.873-6.417-6.417
	s2.873-6.417,6.417-6.417s6.417,2.873,6.417,6.417S80.511,12.501,76.967,12.501z M89.3,24.584c-3.544,0-6.417-2.873-6.417-6.417
	s2.873-6.417,6.417-6.417s6.417,2.873,6.417,6.417S92.844,24.584,89.3,24.584z"/>
<path d="M139.884-1.148v-0.018h-6.167c0,2.394-1.94,4.333-4.333,4.333c-0.114,0-0.222-0.025-0.333-0.034
	c-0.112,0.009-0.219,0.034-0.333,0.034c-2.394,0-4.333-1.94-4.333-4.333h-6.167v0.018C112.574-0.959,108.051,3.953,108.051,10
	c0,6.048,4.523,10.96,10.167,11.149v0.018h6.5c0-2.394,1.94-4.333,4.333-4.333s4.333,1.94,4.333,4.333h6.5v-0.018
	c5.643-0.189,10.167-5.101,10.167-11.149C150.051,3.953,145.527-0.959,139.884-1.148z M118.551,15.667
	c-2.808,0-5.083-2.276-5.083-5.083c0-2.808,2.276-5.083,5.083-5.083c2.807,0,5.083,2.276,5.083,5.083
	C123.634,13.392,121.358,15.667,118.551,15.667z M139.551,15.667c-2.807,0-5.083-2.276-5.083-5.083c0-2.808,2.276-5.083,5.083-5.083
	c2.808,0,5.083,2.276,5.083,5.083C144.634,13.392,142.358,15.667,139.551,15.667z"/>
<path d="M203.44-7.749h-42.833c-2.209,0-4,1.791-4,4v25.583c0,2.209,1.791,4,4,4h42.833c2.209,0,4-1.791,4-4V-3.749
	C207.44-5.958,205.649-7.749,203.44-7.749z M172.107,16.667h-6.333V2.001h6.333V16.667z M198.273,16.667h-6.333V2.001h6.333V16.667z
	"/>
<path d="M265.44-6.791h-17.558v10.25h-7.833v-10.25h-17.443c-2.209,0-4,1.791-4,4v25.583c0,2.209,1.791,4,4,4h42.834
	c2.209,0,4-1.791,4-4V-2.791C269.44-5,267.649-6.791,265.44-6.791z M234.106,17.625h-6.334V2.959h6.334V17.625z M260.272,17.625
	h-6.332V2.959h6.332V17.625z"/>
<path d="M322.074-13.917h-29.046l-15.311,15.31v21.398c0,2.209,1.791,4,4,4h50.167c2.209,0,4-1.791,4-4V-0.106L322.074-13.917z
	 M294.218,18.625h-6.666V3.792h6.666V18.625z M311.218,8.792h-6.666V-6.042h6.666V8.792z M327.551,18.625h-6.666V3.792h6.666V18.625
	z"/>
<path d="M386.241-18.375h-29.046l-15.311,15.31v21.398c0,2.209,1.791,4,4,4h20.499v-6.833c0-2.209,1.791-4,4-4h1.167
	c2.209,0,4,1.791,4,4v6.833h20.501c2.209,0,4-1.791,4-4V-4.564L386.241-18.375z M358.385,14.167h-6.666V-0.666h6.666V14.167z
	 M375.385,4.334h-6.666V-10.5h6.666V4.334z M391.718,14.167h-6.666V-0.666h6.666V14.167z"/>
<path d="M459.949-11.166h-8.065v-7.208h-28.189l-0.311,0.311v6.898h-6.898l-8.102,8.102v21.398c0,2.209,1.791,4,4,4h20.499v-6.833
	c0-2.209,1.791-4,4-4h1.167c2.209,0,4,1.791,4,4v6.833h20.501c2.209,0,4-1.791,4-4V-4.564L459.949-11.166z M424.884,14.167h-6.666
	V-0.666h6.666V14.167z M441.884,4.334h-6.666V-10.5h6.666V4.334z M458.217,14.167h-6.666V-0.666h6.666V14.167z"/>
<path d="M519.282-15.416h-28.251L476.384-0.768v21.102c0,2.209,1.791,4,4,4h50c2.209,0,4-1.791,4-4V-0.314L519.282-15.416z
	 M492.384,17.834h-6.25V2.084h6.25V17.834z M525.634,17.834h-6.25V2.084h6.25V17.834z"/>
<path d="M604.384-20.916h-56.25c-2.209,0-4,1.791-4,4v33.5c0,2.209,1.791,4,4,4h56.25c2.209,0,4-1.791,4-4v-33.5
	C608.384-19.125,606.593-20.916,604.384-20.916z M568.134-11.166h15.75v6.75h-15.75V-11.166z M569.384,11.334h-15.75v-6.75h15.75
	V11.334z M598.634,11.334h-15.75v-6.75h15.75V11.334z"/>
<path d="M661.679-24.166h-31.805l-16.49,16.491v23.756c0,2.487,2.017,4.503,4.503,4.503h56.289c2.487,0,4.504-2.016,4.504-4.503
	V-7.165L661.679-24.166z M638.032-13.416h15.75v6.75h-15.75V-13.416z M639.282,9.084h-15.75v-6.75h15.75V9.084z M668.532,9.084
	h-15.75v-6.75h15.75V9.084z"/>
<path d="M743.634-19.166h-56.25c-2.209,0-4,1.791-4,4v33.5c0,2.209,1.791,4,4,4h56.25c2.209,0,4-1.791,4-4v-33.5
	C747.634-17.375,745.843-19.166,743.634-19.166z M708.384,12.584h-15.75v-7h15.75V12.584z M738.884,12.584h-15.75v-7h15.75V12.584z"
	/>
</svg>
