<?xml version="1.0" encoding="utf-8"?>
<!-- Generator: Adobe Illustrator 15.1.0, SVG Export Plug-In . SVG Version: 6.00 Build 0)  -->
<!DOCTYPE svg PUBLIC "-//W3C//DTD SVG 1.1//EN" "http://www.w3.org/Graphics/SVG/1.1/DTD/svg11.dtd">
<svg version="1.1" id="Layer_1" xmlns="http://www.w3.org/2000/svg" xmlns:xlink="http://www.w3.org/1999/xlink" x="0px" y="0px"
	 width="46.333px" height="35.25px" viewBox="0 0 46.333 35.25" enable-background="new 0 0 46.333 35.25" xml:space="preserve">
<path d="M-70.333,15.707v-0.041H-78.5H-81h-8.167v0.041c-5.125,0.411-9.167,4.968-9.167,10.542c0,5.575,4.042,10.132,9.167,10.543
	v0.041H-81h2.5h8.167v-0.041c5.125-0.411,9.167-4.968,9.167-10.543C-61.167,20.675-65.208,16.117-70.333,15.707z M-86.583,31.333
	c-2.808,0-5.083-2.276-5.083-5.083c0-2.808,2.275-5.083,5.083-5.083c2.808,0,5.083,2.275,5.083,5.083
	C-81.5,29.056-83.775,31.333-86.583,31.333z M-71.75,31.333c-2.808,0-5.083-2.276-5.083-5.083c0-2.808,2.275-5.083,5.083-5.083
	c2.808,0,5.083,2.275,5.083,5.083C-66.667,29.056-68.942,31.333-71.75,31.333z"/>
<path d="M-20.167,13.166V5.999h-11.5h-11.5v7.167c-6.351,0-11.5,5.149-11.5,11.5s5.149,11.5,11.5,11.5s11.5-5.149,11.5-11.5
	c0,6.351,5.149,11.5,11.5,11.5s11.5-5.149,11.5-11.5S-13.815,13.166-20.167,13.166z M-43.167,31.665
	c-3.498,0-6.333-2.947-6.333-6.583c0-3.636,2.835-6.583,6.333-6.583c3.498,0,6.333,2.947,6.333,6.583
	C-36.833,28.718-39.668,31.665-43.167,31.665z M-20.167,31.665c-3.498,0-6.333-2.947-6.333-6.583c0-3.636,2.835-6.583,6.333-6.583
	c3.498,0,6.333,2.947,6.333,6.583C-13.833,28.718-16.669,31.665-20.167,31.665z"/>
<path d="M34.75,12.083c-0.262,0-0.519,0.022-0.777,0.039C33.981,11.942,34,11.765,34,11.583C34,5.186,28.814,0,22.417,0
	C16.02,0,10.833,5.186,10.833,11.583c0,0.013,0.002,0.025,0.002,0.038C4.789,12.008,0,17.021,0,23.166
	C0,29.563,5.186,34.75,11.583,34.75c6.397,0,11.583-5.186,11.583-11.583c0-0.013-0.002-0.025-0.002-0.037
	c0.01-0.001,0.02-0.001,0.029-0.001c-0.008,0.18-0.027,0.357-0.027,0.539c0,6.397,5.186,11.583,11.583,11.583
	c6.397,0,11.583-5.186,11.583-11.583C46.333,17.269,41.147,12.083,34.75,12.083z M11.583,30.083c-3.544,0-6.417-2.873-6.417-6.417
	s2.873-6.417,6.417-6.417S18,20.123,18,23.667S15.127,30.083,11.583,30.083z M22.417,18.5C18.873,18.5,16,15.627,16,12.083
	s2.873-6.417,6.417-6.417s6.417,2.873,6.417,6.417S25.96,18.5,22.417,18.5z M34.75,30.583c-3.544,0-6.417-2.873-6.417-6.417
	s2.873-6.417,6.417-6.417s6.417,2.873,6.417,6.417S38.293,30.583,34.75,30.583z"/>
<path d="M85.333,4.851V4.833h-6.167c0,2.394-1.94,4.333-4.333,4.333c-0.114,0-0.222-0.025-0.333-0.034
	c-0.112,0.009-0.219,0.034-0.333,0.034c-2.394,0-4.333-1.94-4.333-4.333h-6.167v0.018C58.023,5.04,53.5,9.952,53.5,15.999
	c0,6.048,4.523,10.96,10.167,11.149v0.018h6.5c0-2.394,1.94-4.333,4.333-4.333s4.333,1.94,4.333,4.333h6.5v-0.018
	C90.977,26.959,95.5,22.047,95.5,15.999C95.5,9.952,90.977,5.04,85.333,4.851z M64,21.666c-2.808,0-5.083-2.276-5.083-5.083
	c0-2.808,2.276-5.083,5.083-5.083c2.807,0,5.083,2.276,5.083,5.083C69.083,19.39,66.807,21.666,64,21.666z M85,21.666
	c-2.807,0-5.083-2.276-5.083-5.083c0-2.808,2.276-5.083,5.083-5.083c2.808,0,5.083,2.276,5.083,5.083
	C90.083,19.39,87.808,21.666,85,21.666z"/>
<path d="M148.89-1.75h-42.833c-2.209,0-4,1.791-4,4v25.583c0,2.209,1.791,4,4,4h42.833c2.209,0,4-1.791,4-4V2.25
	C152.89,0.041,151.099-1.75,148.89-1.75z M117.556,22.666h-6.333V8h6.333V22.666z M143.723,22.666h-6.333V8h6.333V22.666z"/>
<path d="M210.89-0.792h-17.558v10.25h-7.833v-10.25h-17.443c-2.209,0-4,1.791-4,4v25.583c0,2.209,1.791,4,4,4h42.834
	c2.209,0,4-1.791,4-4V3.208C214.89,0.999,213.099-0.792,210.89-0.792z M179.556,23.624h-6.334V8.958h6.334V23.624z M205.722,23.624
	h-6.332V8.958h6.332V23.624z"/>
<path d="M267.523-7.918h-29.046l-15.311,15.31v21.398c0,2.209,1.791,4,4,4h50.167c2.209,0,4-1.791,4-4V5.893L267.523-7.918z
	 M239.667,24.624h-6.666V9.791h6.666V24.624z M256.667,14.791h-6.666V-0.043h6.666V14.791z M273,24.624h-6.666V9.791H273V24.624z"/>
<path d="M331.69-12.376h-29.046l-15.311,15.31v21.398c0,2.209,1.791,4,4,4h20.499V21.5c0-2.209,1.791-4,4-4H317c2.209,0,4,1.791,4,4
	v6.833h20.501c2.209,0,4-1.791,4-4V1.435L331.69-12.376z M303.834,20.166h-6.666V5.333h6.666V20.166z M320.834,10.333h-6.666V-4.501
	h6.666V10.333z M337.167,20.166h-6.666V5.333h6.666V20.166z"/>
<path d="M405.398-5.167h-8.065v-7.208h-28.189l-0.311,0.311v6.898h-6.898l-8.102,8.102v21.398c0,2.209,1.791,4,4,4h20.499V21.5
	c0-2.209,1.791-4,4-4h1.167c2.209,0,4,1.791,4,4v6.833H408c2.209,0,4-1.791,4-4V1.435L405.398-5.167z M370.333,20.166h-6.666V5.333
	h6.666V20.166z M387.333,10.333h-6.666V-4.501h6.666V10.333z M403.666,20.166H397V5.333h6.666V20.166z"/>
<path d="M464.731-9.417H436.48L421.833,5.231v21.102c0,2.209,1.791,4,4,4h50c2.209,0,4-1.791,4-4V5.684L464.731-9.417z
	 M437.833,23.833h-6.25V8.083h6.25V23.833z M471.083,23.833h-6.25V8.083h6.25V23.833z"/>
<path d="M549.833-14.917h-56.25c-2.209,0-4,1.791-4,4v33.5c0,2.209,1.791,4,4,4h56.25c2.209,0,4-1.791,4-4v-33.5
	C553.833-13.126,552.042-14.917,549.833-14.917z M513.583-5.167h15.75v6.75h-15.75V-5.167z M514.833,17.333h-15.75v-6.75h15.75
	V17.333z M544.083,17.333h-15.75v-6.75h15.75V17.333z"/>
<path d="M607.128-18.167h-31.805l-16.49,16.491V22.08c0,2.487,2.017,4.503,4.503,4.503h56.289c2.487,0,4.504-2.016,4.504-4.503
	V-1.167L607.128-18.167z M583.481-7.417h15.75v6.75h-15.75V-7.417z M584.731,15.083h-15.75v-6.75h15.75V15.083z M613.981,15.083
	h-15.75v-6.75h15.75V15.083z"/>
<path d="M689.083-13.167h-56.25c-2.209,0-4,1.791-4,4v33.5c0,2.209,1.791,4,4,4h56.25c2.209,0,4-1.791,4-4v-33.5
	C693.083-11.376,691.292-13.167,689.083-13.167z M653.833,18.583h-15.75v-7h15.75V18.583z M684.333,18.583h-15.75v-7h15.75V18.583z"
	/>
</svg>
