<?xml version="1.0" encoding="utf-8"?>
<!-- Generator: Adobe Illustrator 15.1.0, SVG Export Plug-In . SVG Version: 6.00 Build 0)  -->
<!DOCTYPE svg PUBLIC "-//W3C//DTD SVG 1.1//EN" "http://www.w3.org/Graphics/SVG/1.1/DTD/svg11.dtd">
<svg version="1.1" id="Layer_1" xmlns="http://www.w3.org/2000/svg" xmlns:xlink="http://www.w3.org/1999/xlink" x="0px" y="0px"
	 width="42px" height="22.333px" viewBox="0 0 42 22.333" enable-background="new 0 0 42 22.333" xml:space="preserve">
<path d="M-123.833,10.874v-0.041H-132h-2.5h-8.167v0.041c-5.125,0.411-9.167,4.968-9.167,10.542c0,5.575,4.042,10.132,9.167,10.543
	V32h8.167h2.5h8.167v-0.041c5.125-0.411,9.167-4.968,9.167-10.543C-114.667,15.842-118.708,11.285-123.833,10.874z M-140.083,26.5
	c-2.808,0-5.083-2.276-5.083-5.083c0-2.808,2.275-5.083,5.083-5.083c2.808,0,5.083,2.275,5.083,5.083
	C-135,24.224-137.275,26.5-140.083,26.5z M-125.25,26.5c-2.808,0-5.083-2.276-5.083-5.083c0-2.808,2.275-5.083,5.083-5.083
	c2.808,0,5.083,2.275,5.083,5.083C-120.167,24.224-122.442,26.5-125.25,26.5z"/>
<path d="M-73.667,8.333V1.166h-11.5h-11.5v7.167c-6.351,0-11.5,5.149-11.5,11.5s5.149,11.5,11.5,11.5s11.5-5.149,11.5-11.5
	c0,6.351,5.149,11.5,11.5,11.5s11.5-5.149,11.5-11.5S-67.315,8.333-73.667,8.333z M-96.667,26.833c-3.498,0-6.333-2.947-6.333-6.583
	c0-3.636,2.835-6.583,6.333-6.583c3.498,0,6.333,2.947,6.333,6.583C-90.333,23.885-93.168,26.833-96.667,26.833z M-73.667,26.833
	c-3.498,0-6.333-2.947-6.333-6.583c0-3.636,2.835-6.583,6.333-6.583c3.498,0,6.333,2.947,6.333,6.583
	C-67.333,23.885-70.169,26.833-73.667,26.833z"/>
<path d="M-18.75,7.25c-0.262,0-0.519,0.022-0.777,0.039C-19.519,7.11-19.5,6.933-19.5,6.75c0-6.397-5.186-11.583-11.583-11.583
	c-6.397,0-11.583,5.186-11.583,11.583c0,0.013,0.002,0.025,0.002,0.038C-48.711,7.176-53.5,12.189-53.5,18.333
	c0,6.397,5.186,11.583,11.583,11.583c6.397,0,11.583-5.186,11.583-11.583c0-0.013-0.002-0.025-0.002-0.037
	c0.01-0.001,0.02-0.001,0.029-0.001c-0.008,0.18-0.027,0.357-0.027,0.539c0,6.397,5.186,11.583,11.583,11.583
	c6.397,0,11.583-5.186,11.583-11.583C-7.167,12.437-12.353,7.25-18.75,7.25z M-41.917,25.25c-3.544,0-6.417-2.873-6.417-6.417
	s2.873-6.417,6.417-6.417s6.417,2.873,6.417,6.417S-38.373,25.25-41.917,25.25z M-31.083,13.667c-3.544,0-6.417-2.873-6.417-6.417
	s2.873-6.417,6.417-6.417s6.417,2.873,6.417,6.417S-27.54,13.667-31.083,13.667z M-18.75,25.75c-3.544,0-6.417-2.873-6.417-6.417
	s2.873-6.417,6.417-6.417s6.417,2.873,6.417,6.417S-15.207,25.75-18.75,25.75z"/>
<path d="M31.833,0.018V0h-6.167c0,2.394-1.94,4.333-4.333,4.333c-0.114,0-0.222-0.025-0.333-0.034
	c-0.112,0.009-0.219,0.034-0.333,0.034c-2.394,0-4.333-1.94-4.333-4.333h-6.167v0.018C4.523,0.207,0,5.119,0,11.167
	c0,6.048,4.523,10.96,10.167,11.149v0.018h6.5C16.667,19.94,18.606,18,21,18s4.333,1.94,4.333,4.333h6.5v-0.018
	C37.477,22.126,42,17.214,42,11.167C42,5.119,37.477,0.207,31.833,0.018z M10.5,16.833c-2.808,0-5.083-2.276-5.083-5.083
	c0-2.808,2.276-5.083,5.083-5.083c2.807,0,5.083,2.276,5.083,5.083C15.583,14.558,13.307,16.833,10.5,16.833z M31.5,16.833
	c-2.807,0-5.083-2.276-5.083-5.083c0-2.808,2.276-5.083,5.083-5.083c2.808,0,5.083,2.276,5.083,5.083
	C36.583,14.558,34.308,16.833,31.5,16.833z"/>
<path d="M95.39-6.583H52.556c-2.209,0-4,1.791-4,4V23c0,2.209,1.791,4,4,4H95.39c2.209,0,4-1.791,4-4V-2.583
	C99.39-4.792,97.599-6.583,95.39-6.583z M64.056,17.833h-6.333V3.167h6.333V17.833z M90.223,17.833H83.89V3.167h6.333V17.833z"/>
<path d="M157.39-5.625h-17.558v10.25h-7.833v-10.25h-17.443c-2.209,0-4,1.791-4,4v25.583c0,2.209,1.791,4,4,4h42.834
	c2.209,0,4-1.791,4-4V-1.625C161.39-3.834,159.599-5.625,157.39-5.625z M126.056,18.792h-6.334V4.125h6.334V18.792z M152.222,18.792
	h-6.332V4.125h6.332V18.792z"/>
<path d="M214.023-12.75h-29.046L169.667,2.56v21.398c0,2.209,1.791,4,4,4h50.167c2.209,0,4-1.791,4-4V1.06L214.023-12.75z
	 M186.167,19.792h-6.666V4.958h6.666V19.792z M203.167,9.958h-6.666V-4.875h6.666V9.958z M219.5,19.792h-6.666V4.958h6.666V19.792z"
	/>
<path d="M278.19-17.208h-29.046l-15.311,15.31V19.5c0,2.209,1.791,4,4,4h20.499v-6.833c0-2.209,1.791-4,4-4h1.167
	c2.209,0,4,1.791,4,4V23.5h20.501c2.209,0,4-1.791,4-4V-3.398L278.19-17.208z M250.334,15.333h-6.666V0.5h6.666V15.333z
	 M267.334,5.5h-6.666V-9.333h6.666V5.5z M283.667,15.333h-6.666V0.5h6.666V15.333z"/>
<path d="M351.898-10h-8.065v-7.208h-28.189l-0.311,0.311V-10h-6.898l-8.102,8.102V19.5c0,2.209,1.791,4,4,4h20.499v-6.833
	c0-2.209,1.791-4,4-4h1.167c2.209,0,4,1.791,4,4V23.5H354.5c2.209,0,4-1.791,4-4V-3.398L351.898-10z M316.833,15.333h-6.666V0.5
	h6.666V15.333z M333.833,5.5h-6.666V-9.333h6.666V5.5z M350.166,15.333H343.5V0.5h6.666V15.333z"/>
<path d="M411.231-14.25H382.98L368.333,0.398V21.5c0,2.209,1.791,4,4,4h50c2.209,0,4-1.791,4-4V0.852L411.231-14.25z M384.333,19
	h-6.25V3.25h6.25V19z M417.583,19h-6.25V3.25h6.25V19z"/>
<path d="M496.333-19.75h-56.25c-2.209,0-4,1.791-4,4v33.5c0,2.209,1.791,4,4,4h56.25c2.209,0,4-1.791,4-4v-33.5
	C500.333-17.959,498.542-19.75,496.333-19.75z M460.083-10h15.75v6.75h-15.75V-10z M461.333,12.5h-15.75V5.75h15.75V12.5z
	 M490.583,12.5h-15.75V5.75h15.75V12.5z"/>
<path d="M553.628-23h-31.805l-16.49,16.491v23.756c0,2.487,2.017,4.503,4.503,4.503h56.289c2.487,0,4.504-2.016,4.504-4.503V-5.999
	L553.628-23z M529.981-12.25h15.75v6.75h-15.75V-12.25z M531.231,10.25h-15.75V3.5h15.75V10.25z M560.481,10.25h-15.75V3.5h15.75
	V10.25z"/>
<path d="M635.583-18h-56.25c-2.209,0-4,1.791-4,4v33.5c0,2.209,1.791,4,4,4h56.25c2.209,0,4-1.791,4-4V-14
	C639.583-16.209,637.792-18,635.583-18z M600.333,13.75h-15.75v-7h15.75V13.75z M630.833,13.75h-15.75v-7h15.75V13.75z"/>
</svg>
