<?xml version="1.0" encoding="utf-8"?>
<!-- Generator: Adobe Illustrator 15.1.0, SVG Export Plug-In . SVG Version: 6.00 Build 0)  -->
<!DOCTYPE svg PUBLIC "-//W3C//DTD SVG 1.1//EN" "http://www.w3.org/Graphics/SVG/1.1/DTD/svg11.dtd">
<svg version="1.1" id="Layer_1" xmlns="http://www.w3.org/2000/svg" xmlns:xlink="http://www.w3.org/1999/xlink" x="0px" y="0px"
	 width="50.833px" height="34.333px" viewBox="0 0 50.833 34.333" enable-background="new 0 0 50.833 34.333" xml:space="preserve">
<path d="M-172.39,18.207v-0.041h-8.167h-2.5h-8.167v0.041c-5.125,0.411-9.167,4.968-9.167,10.542c0,5.575,4.042,10.132,9.167,10.543
	v0.041h8.167h2.5h8.167v-0.041c5.125-0.411,9.167-4.968,9.167-10.543C-163.223,23.175-167.265,18.618-172.39,18.207z
	 M-188.639,33.833c-2.808,0-5.083-2.276-5.083-5.083c0-2.808,2.275-5.083,5.083-5.083c2.808,0,5.083,2.275,5.083,5.083
	C-183.556,31.557-185.832,33.833-188.639,33.833z M-173.806,33.833c-2.808,0-5.083-2.276-5.083-5.083
	c0-2.808,2.275-5.083,5.083-5.083c2.808,0,5.083,2.275,5.083,5.083C-168.723,31.557-170.999,33.833-173.806,33.833z"/>
<path d="M-122.223,15.666V8.499h-11.5h-11.5v7.167c-6.351,0-11.5,5.149-11.5,11.5s5.149,11.5,11.5,11.5s11.5-5.149,11.5-11.5
	c0,6.351,5.149,11.5,11.5,11.5s11.5-5.149,11.5-11.5S-115.872,15.666-122.223,15.666z M-145.223,34.166
	c-3.498,0-6.333-2.947-6.333-6.583c0-3.636,2.835-6.583,6.333-6.583c3.498,0,6.333,2.947,6.333,6.583
	C-138.889,31.218-141.725,34.166-145.223,34.166z M-122.223,34.166c-3.498,0-6.333-2.947-6.333-6.583
	c0-3.636,2.835-6.583,6.333-6.583c3.498,0,6.333,2.947,6.333,6.583C-115.89,31.218-118.725,34.166-122.223,34.166z"/>
<path d="M-67.306,14.583c-0.262,0-0.519,0.022-0.777,0.039c0.008-0.18,0.027-0.357,0.027-0.539c0-6.397-5.186-11.583-11.583-11.583
	c-6.397,0-11.583,5.186-11.583,11.583c0,0.013,0.002,0.025,0.002,0.038c-6.047,0.388-10.835,5.401-10.835,11.545
	c0,6.397,5.186,11.583,11.583,11.583c6.397,0,11.583-5.186,11.583-11.583c0-0.013-0.002-0.025-0.002-0.037
	c0.01-0.001,0.02-0.001,0.029-0.001c-0.008,0.18-0.027,0.357-0.027,0.539c0,6.397,5.186,11.583,11.583,11.583
	c6.397,0,11.583-5.186,11.583-11.583C-55.723,19.77-60.909,14.583-67.306,14.583z M-90.473,32.583c-3.544,0-6.417-2.873-6.417-6.417
	s2.873-6.417,6.417-6.417s6.417,2.873,6.417,6.417S-86.929,32.583-90.473,32.583z M-79.64,21c-3.544,0-6.417-2.873-6.417-6.417
	s2.873-6.417,6.417-6.417s6.417,2.873,6.417,6.417S-76.096,21-79.64,21z M-67.307,33.083c-3.544,0-6.417-2.873-6.417-6.417
	s2.873-6.417,6.417-6.417s6.417,2.873,6.417,6.417S-63.763,33.083-67.307,33.083z"/>
<path d="M-16.723,7.351V7.333h-6.167c0,2.394-1.94,4.333-4.333,4.333c-0.114,0-0.222-0.025-0.333-0.034
	c-0.112,0.009-0.219,0.034-0.333,0.034c-2.394,0-4.333-1.94-4.333-4.333h-6.167v0.018C-44.033,7.54-48.556,12.452-48.556,18.5
	c0,6.048,4.523,10.96,10.167,11.149v0.018h6.5c0-2.394,1.94-4.333,4.333-4.333s4.333,1.94,4.333,4.333h6.5v-0.018
	C-11.08,29.459-6.556,24.547-6.556,18.5C-6.556,12.452-11.08,7.54-16.723,7.351z M-38.056,24.167c-2.808,0-5.083-2.276-5.083-5.083
	c0-2.808,2.276-5.083,5.083-5.083c2.807,0,5.083,2.276,5.083,5.083C-32.973,21.891-35.249,24.167-38.056,24.167z M-17.056,24.167
	c-2.807,0-5.083-2.276-5.083-5.083c0-2.808,2.276-5.083,5.083-5.083c2.808,0,5.083,2.276,5.083,5.083
	C-11.973,21.891-14.249,24.167-17.056,24.167z"/>
<path d="M46.833,0.75H4c-2.209,0-4,1.791-4,4v25.583c0,2.209,1.791,4,4,4h42.833c2.209,0,4-1.791,4-4V4.75
	C50.833,2.541,49.042,0.75,46.833,0.75z M15.5,25.167H9.167V10.5H15.5V25.167z M41.667,25.167h-6.333V10.5h6.333V25.167z"/>
<path d="M108.833,1.708H91.276v10.25h-7.833V1.708H66c-2.209,0-4,1.791-4,4v25.583c0,2.209,1.791,4,4,4h42.834c2.209,0,4-1.791,4-4
	V5.708C112.833,3.499,111.042,1.708,108.833,1.708z M77.5,26.125h-6.334V11.458H77.5V26.125z M103.666,26.125h-6.332V11.458h6.332
	V26.125z"/>
<path d="M165.467-5.417h-29.046l-15.311,15.31v21.398c0,2.209,1.791,4,4,4h50.167c2.209,0,4-1.791,4-4V8.393L165.467-5.417z
	 M137.611,27.125h-6.666V12.291h6.666V27.125z M154.611,17.291h-6.666V2.458h6.666V17.291z M170.944,27.125h-6.666V12.291h6.666
	V27.125z"/>
<path d="M229.634-9.875h-29.046l-15.311,15.31v21.398c0,2.209,1.791,4,4,4h20.499V24c0-2.209,1.791-4,4-4h1.167c2.209,0,4,1.791,4,4
	v6.833h20.501c2.209,0,4-1.791,4-4V3.935L229.634-9.875z M201.778,22.667h-6.666V7.833h6.666V22.667z M218.778,12.833h-6.666V-2
	h6.666V12.833z M235.111,22.667h-6.666V7.833h6.666V22.667z"/>
<path d="M303.342-2.667h-8.065v-7.208h-28.189l-0.311,0.311v6.898h-6.898l-8.102,8.102v21.398c0,2.209,1.791,4,4,4h20.499V24
	c0-2.209,1.791-4,4-4h1.167c2.209,0,4,1.791,4,4v6.833h20.501c2.209,0,4-1.791,4-4V3.935L303.342-2.667z M268.277,22.667h-6.666
	V7.833h6.666V22.667z M285.277,12.833h-6.666V-2h6.666V12.833z M301.61,22.667h-6.666V7.833h6.666V22.667z"/>
<path d="M362.675-6.917h-28.251L319.777,7.731v21.102c0,2.209,1.791,4,4,4h50c2.209,0,4-1.791,4-4V8.185L362.675-6.917z
	 M335.777,26.333h-6.25v-15.75h6.25V26.333z M369.027,26.333h-6.25v-15.75h6.25V26.333z"/>
<path d="M447.777-12.417h-56.25c-2.209,0-4,1.791-4,4v33.5c0,2.209,1.791,4,4,4h56.25c2.209,0,4-1.791,4-4v-33.5
	C451.777-10.626,449.986-12.417,447.777-12.417z M411.527-2.667h15.75v6.75h-15.75V-2.667z M412.777,19.833h-15.75v-6.75h15.75
	V19.833z M442.027,19.833h-15.75v-6.75h15.75V19.833z"/>
<path d="M505.072-15.667h-31.805l-16.49,16.491V24.58c0,2.487,2.017,4.503,4.503,4.503h56.289c2.487,0,4.504-2.016,4.504-4.503
	V1.334L505.072-15.667z M481.425-4.917h15.75v6.75h-15.75V-4.917z M482.675,17.583h-15.75v-6.75h15.75V17.583z M511.925,17.583
	h-15.75v-6.75h15.75V17.583z"/>
<path d="M587.027-10.667h-56.25c-2.209,0-4,1.791-4,4v33.5c0,2.209,1.791,4,4,4h56.25c2.209,0,4-1.791,4-4v-33.5
	C591.027-8.876,589.236-10.667,587.027-10.667z M551.777,21.083h-15.75v-7h15.75V21.083z M582.277,21.083h-15.75v-7h15.75V21.083z"
	/>
</svg>
